<svg width="80" height="80" viewBox="0 0 80 80" fill="none" xmlns="http://www.w3.org/2000/svg">
<path d="M15 42.5H35V47.5H15V42.5Z" fill="#C1FF00"/>
<path d="M7.5 47.5C8.88071 47.5 10 46.3807 10 45C10 43.6193 8.88071 42.5 7.5 42.5C6.11929 42.5 5 43.6193 5 45C5 46.3807 6.11929 47.5 7.5 47.5Z" fill="#C1FF00"/>
<path d="M32.5 37.5C33.8807 37.5 35 36.3807 35 35C35 33.6193 33.8807 32.5 32.5 32.5C31.1193 32.5 30 33.6193 30 35C30 36.3807 31.1193 37.5 32.5 37.5Z" fill="#C1FF00"/>
<path d="M5 32.5H25V37.5H5V32.5ZM15 22.5H35V27.5H15V22.5Z" fill="#C1FF00"/>
<path d="M7.5 27.5C8.88071 27.5 10 26.3807 10 25C10 23.6193 8.88071 22.5 7.5 22.5C6.11929 22.5 5 23.6193 5 25C5 26.3807 6.11929 27.5 7.5 27.5Z" fill="#C1FF00"/>
<path d="M75 71.5L56.5 53C60.25 48 62.5 41.75 62.5 35C62.5 18.5 49 5 32.5 5C24.25 5 16.5 8.25 10.75 14.5L14.5 18C19 12.75 25.5 10 32.5 10C46.25 10 57.5 21.25 57.5 35C57.5 48.75 46.25 60 32.5 60C25 60 18 56.75 13.25 51L9.5 54.25C15 61 23.5 65 32.5 65C40.5 65 47.75 61.75 53.25 56.75L71.5 75L75 71.5Z" fill="#0867FF"/>
</svg>
