<svg width="51" height="45" viewBox="0 0 51 45" fill="none" xmlns="http://www.w3.org/2000/svg">
<circle cx="17" cy="17" r="17" fill="#C1FF00"/>
<path d="M35.625 9.76562C32.9652 9.76692 30.3553 10.4874 28.0716 11.8509C25.7879 13.2144 23.9154 15.17 22.6524 17.5108C21.1829 17.359 19.6979 17.5077 18.2878 17.9479C16.8776 18.3882 15.5718 19.1107 14.4497 20.0716C13.3276 21.0324 12.4127 22.2115 11.7607 23.5371C11.1087 24.8627 10.7332 26.3071 10.6571 27.7825C10.5809 29.2578 10.8057 30.7332 11.3178 32.1188C11.8299 33.5045 12.6185 34.7715 13.6357 35.8428C14.653 36.9141 15.8775 37.7672 17.2349 38.3502C18.5922 38.9333 20.054 39.2341 21.5313 39.2344H35.625C39.5328 39.2344 43.2806 37.682 46.0438 34.9188C48.807 32.1555 50.3594 28.4078 50.3594 24.5C50.3594 20.5922 48.807 16.8445 46.0438 14.0812C43.2806 11.318 39.5328 9.76563 35.625 9.76562ZM35.625 35.3906H21.5313C19.6623 35.4293 17.8546 34.7239 16.5057 33.4297C15.1568 32.1355 14.3773 30.3584 14.3386 28.4895C14.3 26.6205 15.0054 24.8128 16.2996 23.4639C17.5938 22.115 19.3708 21.3355 21.2398 21.2969C21.0065 22.3486 20.8894 23.4227 20.8906 24.5C20.8906 25.0097 21.0931 25.4985 21.4535 25.859C21.814 26.2194 22.3028 26.4219 22.8125 26.4219C23.3222 26.4219 23.8111 26.2194 24.1715 25.859C24.5319 25.4985 24.7344 25.0097 24.7344 24.5C24.7344 22.346 25.3731 20.2404 26.5698 18.4495C27.7665 16.6585 29.4673 15.2627 31.4573 14.4384C33.4473 13.6141 35.6371 13.3984 37.7497 13.8186C39.8622 14.2389 41.8028 15.2761 43.3258 16.7992C44.8489 18.3222 45.8862 20.2628 46.3064 22.3753C46.7266 24.4879 46.5109 26.6777 45.6866 28.6677C44.8623 30.6577 43.4665 32.3585 41.6755 33.5552C39.8846 34.7519 37.779 35.3906 35.625 35.3906Z" fill="#2A2A2A"/>
</svg>
