<svg width="46" height="42" viewBox="0 0 46 42" fill="none" xmlns="http://www.w3.org/2000/svg">
<circle cx="17" cy="17" r="17" fill="#C1FF00"/>
<path d="M22.875 14.25C22.875 15.4766 23.3623 16.653 24.2296 17.5204C25.097 18.3877 26.2734 18.875 27.5 18.875C28.7266 18.875 29.903 18.3877 30.7704 17.5204C31.6377 16.653 32.125 15.4766 32.125 14.25C32.125 13.0234 31.6377 11.847 30.7704 10.9796C29.903 10.1123 28.7266 9.625 27.5 9.625C26.2734 9.625 25.097 10.1123 24.2296 10.9796C23.3623 11.847 22.875 13.0234 22.875 14.25Z" stroke="#2A2A2A" stroke-width="2" stroke-linecap="round" stroke-linejoin="round"/>
<path d="M19.5373 18.875H35.4627C35.8238 18.8749 36.1734 19.0016 36.4506 19.2329C36.7278 19.4642 36.9151 19.7855 36.9797 20.1407L39.5034 34.0157C39.5438 34.2379 39.535 34.4663 39.4774 34.6847C39.4198 34.903 39.315 35.1061 39.1702 35.2795C39.0255 35.4529 38.8445 35.5924 38.6399 35.6881C38.4354 35.7838 38.2123 35.8334 37.9864 35.8333H17.0136C16.7877 35.8334 16.5646 35.7838 16.3601 35.6881C16.1555 35.5924 15.9745 35.4529 15.8297 35.2795C15.685 35.1061 15.5802 34.903 15.5226 34.6847C15.465 34.4663 15.4562 34.2379 15.4966 34.0157L18.0203 20.1407C18.0849 19.7855 18.2722 19.4642 18.5494 19.2329C18.8266 19.0016 19.1762 18.8749 19.5373 18.875Z" stroke="#2A2A2A" stroke-width="2" stroke-linecap="round" stroke-linejoin="round"/>
</svg>
