<svg width="548" height="548" viewBox="0 0 548 548" fill="none" xmlns="http://www.w3.org/2000/svg">
<path d="M272.032 95.8424C277.89 102.862 279.306 104.542 282.893 107.912C284.384 109.315 286.556 109.096 286.565 107.172C282.805 96.774 214.481 26.8629 272.032 95.8424Z" fill="#C1FF00"/>
<path d="M254.649 147.116C250.865 144.743 218.563 135.575 207.951 132.621C201.888 130.933 204.014 133.742 206.198 134.772C217.158 139.934 248.964 150.291 253.855 150.047C256.134 149.932 256.167 148.066 254.649 147.116Z" fill="#0867FF"/>
<path d="M319.727 44.2524C318.976 45.2416 319.245 44.1839 318.88 50.253C321.009 98.7812 327.944 92.7833 326.717 83.5029C326.648 82.9878 321.305 45.5375 319.727 44.2524Z" fill="#0867FF"/>
<path d="M516.215 282.56C508.173 279.294 482.288 261.981 465.966 256.244C450.888 255.942 508.116 281.5 508.179 281.527C515.853 284.654 520.514 284.306 516.215 282.56Z" fill="#0867FF"/>
<path d="M472.361 211.143C471.789 211.968 472.274 213.234 473.219 213.579C475.825 214.53 524.051 202.641 523.388 199.948C523.246 199.364 476.069 205.789 472.361 211.143Z" fill="#C1FF00"/>
<path d="M435.873 296.351C435.401 295.893 434.445 295.75 434.007 296.126C430.217 299.373 461.418 329.959 464.983 333.335C492.109 359.023 441.646 301.951 435.873 296.351Z" fill="#C1FF00"/>
<path d="M376.944 263.177C374.699 265.468 372.146 267.408 369.666 269.153C368.214 270.173 365.83 269.488 364.257 269.033C361.742 268.307 361.643 268.688 360.731 269.455C359.651 280.913 346.491 306.974 342.896 308.872C342.691 308.245 342.748 307.28 342.781 306.382C342.888 303.639 342.776 303.773 341.932 301.162C339.932 302.973 340.296 302.518 339.162 304.19C327.813 320.868 318.91 325.51 301.629 336.448C300.369 337.245 299.569 337.349 299.273 337.196C298.456 336.779 299.136 332.582 299.314 331.68C299.517 330.666 299.725 329.62 298.717 329.063C297.651 328.477 296.897 329.189 295.245 330.754C273.3 351.548 283.279 340.034 262.992 363.568C247.714 381.293 247.788 380.397 248.925 381.792C249.753 382.809 250.739 382.25 252.52 381.236C254.603 380.052 258.474 377.849 262.781 376.767C273.541 374.068 280.074 378.931 277.898 390.217L277.509 392.234C279.854 391.749 279.375 391.875 279.961 391.648C281.518 390.823 289.57 386.869 295.264 390.072C298.459 391.87 297.875 394.722 299.766 395.229C300.136 395.33 300.72 395.352 301.377 394.895C308.827 389.713 313.376 387.921 320.664 390.979C321.615 391.379 324.174 392.379 326.281 397.402C327.415 400.103 328.344 398.646 333.117 398.457C338.247 398.243 338.806 404.509 342.891 404.509C351.064 404.509 355.958 410.014 350.988 412.836C338.734 419.779 305.591 422.166 290.392 423.626C114.287 440.524 108.139 438.899 104.941 425.829C103.84 421.344 108.826 417.415 113.482 416.982C115.753 416.771 116.227 415.373 115.397 413.995C113.334 410.537 112.799 407.669 113.816 405.466C114.975 402.95 118.353 401.046 123.088 400.24L124.861 399.649C124.184 397.961 124.242 397.931 123.368 396.859C122.655 395.985 121.581 394.665 120.195 391.141C119.118 388.406 120.444 383.028 125.05 380.474C129.001 378.29 131.752 379.773 132.56 377.907C132.947 377.013 132.489 376.219 131.793 375.016C121.06 356.485 138.651 337.588 155.713 341.837C166.523 344.531 166.394 349.835 168.852 348.882C169.827 348.504 169.843 347.441 169.849 347.093C170.016 336.182 180.694 328.061 193.235 334.119C202.532 338.61 204.455 347.986 205.088 351.066C205.461 352.899 205.778 353.052 207.855 353.192C210.478 353.364 215.358 353.688 217.029 358.951C219.818 367.733 213.3 369.141 217.114 371.317C220.416 373.186 221.133 375.194 221.273 378.331C221.314 379.238 221.366 380.364 222.473 380.691C223.731 381.058 224.016 380.652 227.54 375.69C234.861 365.368 248.377 347.747 256.145 334.423C264.554 320 264.872 316.199 267.535 306.754C276.52 274.847 277.471 276.557 276.766 274.916L275.692 272.724C273.511 275.97 274.413 274.85 273.224 275.85C273.04 276.006 273.037 276.009 272.955 276.042C272.64 276.173 272.443 276.214 272.382 276.258C270.936 272.507 286.43 243.501 305.046 232.906C305.542 232.624 305.862 232.177 305.95 231.654C306.405 228.925 299.166 226.516 302.69 219.272C303.155 218.31 303.64 216.965 304.068 215.778C304.383 214.907 304.81 213.715 304.961 213.477C307.515 210.243 303.002 208.692 301.711 202.662C301.566 201.985 301.235 201.514 300.728 201.262C299.887 200.845 299.144 201.19 297.916 201.763C293.82 203.673 291.319 204.292 287.296 205.369C279.369 207.49 275.391 208.555 271.593 207.301C264.277 204.889 266.042 199.333 268.494 192.031C193.027 193.099 96.4251 196.412 91.1068 197.083C66.6029 200.179 64.9178 197.483 64.9178 224.195C64.6247 224.195 69.0525 330.653 80.7523 401.66C87.5749 443.058 88.3394 440.116 104.168 441.686C146.959 445.938 289.644 434.91 332.509 431.564C402.121 426.131 391.742 426.591 389.95 384.811C388.931 361.083 383.18 306.162 376.946 263.177H376.944ZM125.288 317.405C120.433 317.024 118.334 317.131 116.594 315.747C107.958 308.872 146.079 308.664 163.681 307.19C165.673 307.023 167.577 307.239 169.457 307.853C170.391 308.16 170.35 308.204 170.471 309.152C171.022 313.492 163.936 315.525 125.288 317.405ZM164.032 279.39C154.899 280.302 120.203 283.777 111.257 282.848C107.804 282.489 107.078 279.53 109.265 278.206C114.739 274.896 177.48 268.29 178.274 274.431C178.683 277.571 176.321 278.162 164.029 279.393L164.032 279.39ZM195.276 311.76C193.114 311.623 190.772 311.555 188.448 311.297C183.042 310.697 180.154 307.28 186.218 305.097C193.265 302.559 216.541 301.696 223.019 302.272C226.339 302.565 234.411 309.631 195.276 311.76ZM252.383 269.383C247.383 271.529 196.846 277.987 192.218 274.294C187.366 270.422 206.269 268.438 213.371 267.46C262.943 260.64 254.575 268.444 252.383 269.383ZM240.777 241.627C239.119 246.795 136.004 251.576 135.944 251.576C114.783 253.154 123.505 252.913 112.054 253.442C110.155 253.53 107.807 251.236 109.191 249.069C112.479 243.921 157.418 243.721 206.57 238.665C239.28 235.298 242.475 236.334 240.777 241.627ZM231.25 212.381C233.329 212.591 237.576 217.724 222.068 218.356C209.639 218.863 191.594 223.075 192.013 217.493C192.47 211.416 225.137 211.761 231.25 212.381ZM108.539 219.68C112.323 217.299 166.955 213.948 180.116 215.214C183.568 215.545 184.661 220.184 175.655 220.883C175.592 220.888 113.09 226.563 109.407 225.486C106.719 224.7 106.04 221.253 108.539 219.68ZM79.8755 222.529C80.1769 212.57 92.9645 210.528 96.4004 219.754C97.5458 222.831 95.7319 228.368 91.0574 230.497C85.5528 233.004 79.7084 228.059 79.8755 222.529ZM92.2603 245.639C98.6253 246.606 101.176 255.067 95.7237 260.572C91.2191 265.12 82.0045 261.769 82.3744 254.089C82.2757 248.79 87.1228 244.858 92.2603 245.639ZM95.8689 277.179C101.143 278.362 102.85 286.434 98.313 291.361C92.748 297.397 83.4731 292.827 83.6375 285.201C83.7937 277.91 89.5477 275.762 95.8689 277.179ZM101.05 320.92C96.3648 326.688 87.553 324.767 85.8734 317.155C84.5746 311.275 88.8353 306.795 92.6083 306.631C104.16 306.127 105.473 315.476 101.05 320.92Z" fill="#0867FF"/>
<path d="M221.52 187.276C221.701 190.263 218.481 190.992 216.785 189.386C212.508 185.345 221.52 180.396 221.52 187.276Z" fill="#0867FF"/>
<path d="M210.541 185.867C209.277 185.108 207.455 185.9 207.447 187.813C207.442 188.9 208.075 189.887 209.31 189.887C211.59 189.887 212.165 186.845 210.541 185.867Z" fill="#0867FF"/>
<path d="M380.832 466.592C380.185 466.135 379.448 465.146 379.818 464.343C380.251 463.403 379.799 463.666 404.492 461.605C417.545 460.515 416.084 459.345 427.675 465.439C443.339 473.678 411.421 475.231 402.434 476.347C394.389 477.344 394.885 476.525 380.832 466.592Z" fill="#2A2A2A"/>
<path d="M266.812 483.906C257.167 471.787 258.104 474.478 279.295 472.374C288.954 471.415 290.858 471.491 294.242 474.755C308.838 488.827 309.953 486.611 285.874 488.874C270.558 490.312 272.541 491.104 266.812 483.906Z" fill="#2A2A2A"/>
<path d="M339.707 470.187C335.197 466.209 345.206 466.869 358.279 465.707C361.942 465.381 367.099 463.896 371.653 467.08C382.835 474.897 383.015 474.171 384.292 476.237C385.194 477.697 383.796 479.026 382.462 479.188C347.357 483.429 356.402 484.917 339.707 470.187Z" fill="#2A2A2A"/>
<path d="M342.943 479.884C347.886 484.194 342.642 483.238 322.618 485.49C313.534 486.512 314.644 486.233 302.166 473.801C299.059 470.708 302.185 470.319 306.89 470.149C330.944 469.288 324.357 463.674 342.943 479.884Z" fill="#2A2A2A"/>
<path d="M203.51 496.25C199.759 496.644 198.4 494.614 189.878 486.347C184.875 481.492 190.892 482.32 205.751 480.78C217.24 479.588 214.853 478.481 227.244 491.436C232.299 496.721 222.84 494.217 203.51 496.25Z" fill="#2A2A2A"/>
<path d="M247.764 475.736C251.534 475.377 253.011 478.073 259.37 486.109C261.801 489.178 263.223 491.085 259.614 491.408C249.353 492.332 249.191 492.367 246.922 492.43C236.762 492.713 240.179 495.576 231.181 485.86C222.591 476.585 219.673 478.407 247.761 475.738L247.764 475.736Z" fill="#2A2A2A"/>
<path d="M369.406 457.342C354.407 447.549 352.33 448.42 369.192 447.245C389.224 445.848 393.164 447.67 407.854 454.161C408.648 454.512 408.944 455.879 407.517 456.314C406.568 456.605 387.372 457.789 379.61 458.52C379.33 458.548 373.203 459.822 369.406 457.342Z" fill="#2A2A2A"/>
<path d="M209.491 472.5C210.675 473.678 210.212 474.692 209.291 474.9C206.872 475.445 187.982 477.574 187.193 477.651C185.527 477.813 182.631 478.448 180.59 476.517C167.643 464.274 168.301 466.614 184.028 464.641C201.811 462.411 200.019 463.082 209.491 472.502V472.5Z" fill="#2A2A2A"/>
<path d="M258.143 469.179C255.274 469.417 254.071 467.357 248.654 460.866C245.835 457.49 248.692 457.758 263.143 456.399C276.292 455.164 273.626 453.942 283.827 463.822C287.085 466.978 285.592 466.902 258.143 469.179Z" fill="#2A2A2A"/>
<path d="M297.473 465.77C293.42 465.137 293.979 465.014 285.852 457.252C284.337 455.805 285.397 454.383 286.948 454.194C287.011 454.186 301.067 452.659 301.136 452.659C306.956 452.289 310.863 451.399 314.184 454.243C329.005 466.94 324.626 461.551 297.473 465.77Z" fill="#2A2A2A"/>
<path d="M149.861 481.827C146.723 481.646 145.627 480.278 139.725 475.018C131.483 467.669 135.278 468.812 147.362 467.757C161.651 466.51 158.642 465.839 168.967 475.799C174.323 480.966 166.361 478.761 149.861 481.824V481.827Z" fill="#2A2A2A"/>
<path d="M323.319 454.772C322.259 453.832 321.22 452.533 322.36 451.698C324.5 450.128 323.322 451.229 344.721 448.903C346.436 448.716 345.921 448.618 357.432 456.325C359.254 457.548 359.706 458.161 359.482 459.312C359.213 460.69 357.163 460.364 348.839 461.09C330.479 462.693 334.063 464.293 323.319 454.769V454.772Z" fill="#2A2A2A"/>
<path d="M233.916 459.411C238.25 459.874 237.968 459.509 241.177 463.112C249.309 472.25 247.646 470.414 232.362 472.064C223.328 473.039 220.679 474.168 216.958 470.179C207.864 460.424 204.217 461.942 233.916 459.411Z" fill="#2A2A2A"/>
<path d="M153.313 488.813C150.789 486.282 155.826 485.958 158.87 485.599C174.085 483.816 175.619 483.164 178.683 485.761C180.918 487.66 186.692 492.491 188.41 494.869C189.243 496.022 186.656 497.031 184.763 497.08C158.9 497.768 163.177 498.71 153.31 488.811L153.313 488.813Z" fill="#2A2A2A"/>
<path d="M505.565 488.849C505.622 472.105 499.043 470.571 479.22 461.238C396.159 422.133 394.893 440.929 402.417 430.6C406.908 424.435 406.064 417.357 404.472 387.253C402.864 356.842 400.551 324.088 396.869 292.062C394.523 291.06 393.263 288.711 392.559 286.259C396.178 315.7 399.45 350.967 401.598 391.111C403.543 427.473 405.768 431.857 380.582 436.241C356.147 440.499 212.464 450.999 212.401 450.999C76.7464 453.591 76.5574 461.74 71.1924 434.882C65.4521 406.142 58.9035 342.802 58.8953 342.747C57.5692 331.091 50.9219 227.259 51.9165 207.408C52.6262 193.25 55.5827 188.863 73.5461 186.951C121.189 181.874 247.328 179.997 273.199 180.057C273.796 178.701 274.424 177.317 275.076 175.922C203.518 176.013 114.076 179.24 81.9305 182.285C61.7915 184.192 49.541 184.175 48.4422 204.501C45.4693 259.605 57.8925 437.115 73.4913 451.947C76.6615 454.961 79.048 455.336 81.3524 456.797C78.0013 458.074 73.9927 458.57 74.2503 463.869C75.0695 480.731 77.1437 487.622 93.9125 501.459C160.382 556.311 133.262 533.114 480.118 504.886C509.214 502.519 505.529 499.5 505.565 488.849ZM257.674 503.621C228.367 507.152 213.692 508.92 213.651 508.925C206.225 510.312 159.297 511.282 159.297 511.136C139.577 511.136 133.064 508.838 120.773 500.412C90.8492 479.898 84.7253 471.132 79.7138 465.42C69.0635 453.284 98.6007 466.976 351.771 443.239C394.115 439.269 392.507 429.441 447.32 452.128C543.029 491.743 522.605 471.689 257.674 503.621Z" fill="#2A2A2A"/>
<path d="M494.98 18.9699C493.416 11.9775 482.793 13.8379 475.888 15.745C459.464 20.2769 426.535 32.4178 397.206 54.1049C385.21 62.9743 363.128 87.711 357.273 95.3145C337.49 121.008 338.751 125.079 336.282 124.624C329.769 123.421 310.97 126.542 297.415 138.807C282.274 152.507 264.278 193.716 265.023 201.791C265.379 205.649 267.922 207.537 271.16 208.605C275.706 210.107 280.123 208.693 289.833 206.112C298.96 203.687 300.043 201.427 300.369 202.955C301.728 209.296 305.632 210.416 303.884 212.633C303.391 213.261 302.355 216.823 301.454 218.678C297.385 227.046 306.115 230.725 304.366 231.72C283.208 243.765 263.96 281.324 273.484 277.308C274.048 277.069 273.985 276.875 275.35 275.973C275.355 275.617 275.32 275.748 275.501 275.461C275.857 276.288 274.753 276.055 266.212 306.387C263.582 315.728 263.316 319.397 254.956 333.735C250.895 340.7 242.133 353.447 236.351 361.215C218.999 384.529 223.81 380.707 222.213 375.252C221.035 371.224 217.377 370.103 217.251 369.763C217.051 369.218 220.588 365.653 218.328 358.538C215.897 350.89 207.579 352.156 206.644 351.655C206.285 351.46 205.455 338.505 193.821 332.888C180.086 326.255 168.646 335.508 168.471 347.076C168.435 349.476 166.955 343.229 156.037 340.511C140.621 336.672 123.126 350.997 127.987 369.665C129.341 374.862 132.171 377.268 131.07 377.526C129.565 377.876 127.286 377.671 124.379 379.279C119.036 382.236 117.614 388.349 118.91 391.645C121.058 397.1 122.573 397.651 123.055 398.854C122.767 398.961 105.958 400.89 114.21 414.702C114.498 415.184 114.624 415.505 113.347 415.623C107.799 416.135 102.297 420.834 103.601 426.158C107.125 440.546 113.83 442.242 290.518 424.994C307.643 423.322 339.266 421.053 351.653 414.031C357.522 410.704 353.412 403.137 342.877 403.145C339.819 403.145 338.912 396.865 333.054 397.095C327.152 397.325 328.341 398.687 327.292 396.306C326.012 393.407 324.166 390.974 321.185 389.721C313.006 386.286 307.731 388.809 300.588 393.774C299.254 394.7 299.804 391.061 295.927 388.883C288.954 384.962 279.295 390.467 279.235 390.48C281.66 377.915 273.854 372.577 262.442 375.441C249.843 378.603 241.714 390.467 263.639 364.911C284.323 340.802 274.147 352.63 296.179 331.749C299.763 328.354 297.201 331.091 297.544 336.396C297.675 338.426 299.248 339.571 302.355 337.604C317.653 327.921 321.48 325.647 326.591 320.923C336.35 311.903 340.545 304.255 341.274 303.598C341.688 304.875 341.148 307.538 341.499 308.985C343.631 317.766 360.953 281.524 362.027 270.225C362.128 269.159 367.282 272.499 370.447 270.275C373.56 268.088 376.574 265.789 379.092 262.915C381.196 260.509 384.024 263.846 388.213 261.994C389.597 261.38 387.819 267.439 389.397 277.414C389.846 280.259 390.811 286.443 392.096 289.01C402.379 309.544 441.202 261.09 450.244 228.983C453.332 218.02 451.707 205.547 448.529 197.514C447.559 195.064 487.999 150.178 494.862 90.9333C497.325 69.6791 500.23 42.4709 494.975 18.9727L494.98 18.9699ZM299.651 199.624C292.483 201.605 267.037 211.482 268.84 199.774C270.262 190.53 280.775 166.445 295.423 147.564C311.085 127.378 332.18 128.69 332.18 128.438C336.729 128.438 336.12 125.652 321.13 154.096C317.773 160.466 304.66 188.379 301.084 198.306C300.807 199.076 300.47 199.393 299.648 199.621L299.651 199.624ZM344.669 304.357C344.401 303.422 345.313 296.427 345.132 293.358C345.083 292.526 344.085 290.114 343.179 291.303C341.581 293.397 331.917 320.224 301.254 335.415C300.815 334.763 302.599 323.068 298.985 325.699C275.402 342.868 240.486 387.461 242.371 389.141C244.5 391.039 246.925 385.017 256.573 380.734C283.288 368.873 274.068 393.138 277.997 393.418C279.306 393.511 281.523 391.36 284.956 390.456C289.343 389.3 295.253 389.686 296.977 394.026C300.172 402.076 301.673 393.76 311.715 391.346C316.82 390.119 322.072 392.256 324.505 398.336C325.125 399.884 325.44 401.846 327.958 401.073C331.177 400.087 334.235 398.243 337.041 401.323C339.589 404.123 339.09 406.052 341.965 405.951C351.166 405.627 372.688 414.508 302.602 420.996C194.38 431.013 123.318 438.337 111.725 432.66C107.903 430.789 105.549 425.437 108.599 421.541C111.999 417.198 119.444 418.648 118.307 416.33C116.142 411.907 114.802 410.43 114.994 406.403C115.095 404.26 120.775 401.909 123.414 401.616C124.159 401.534 124.842 401.665 127.762 401.849C129.565 401.961 129.867 400.665 128.683 399.676C123.858 395.651 118.655 386.771 124.442 382.926C130.404 378.967 136.287 382.104 137.057 380.808C137.52 380.03 137.213 380.049 133.078 372.934C124.028 357.359 139.643 340.311 155.072 343.999C168.008 347.093 166.854 353.326 169.537 353.671C171.085 353.871 171.145 353.208 171.328 348.961C172.06 332.047 190.648 329.37 199.811 342.289C202.904 346.651 202.655 349.03 203.625 353.258C203.984 354.817 213.24 353.677 215.182 359.001C218.015 366.769 209.678 370.38 214.412 372.024C216.793 372.849 218.703 373.904 218.991 376.334C219.191 378.019 219.769 379.367 219.459 380.436C217.771 386.294 217.476 386.058 217.925 386.557C220.572 389.48 239.335 360.762 247.621 350.194C257.63 337.429 263.749 324.718 268.73 309.278C272.739 296.855 279.72 270.091 279.728 269.403C279.737 268.765 279.134 268.406 278.556 268.715C277.44 269.31 276.369 270.913 275.438 271.447C275.281 269.669 281.822 258.832 283.956 255.887C293.179 243.173 304.665 235.016 306.043 233.75C307.89 232.054 325.182 254.678 358.098 268.077C362.219 269.754 348.565 300.976 344.669 304.357ZM370.518 266.458C356.64 269.814 311.759 236.46 304.805 226.61C302.355 223.141 303.761 219.922 305.646 216.39C307.068 213.721 306.775 213.683 307.468 214.324C329.898 234.994 345.54 246.478 376.428 260.589C377.503 261.079 373.105 265.83 370.518 266.458ZM373.557 255.479C338.474 238.754 312.507 214.779 307.315 208.348C301.563 201.227 304.046 198.58 309.183 187.907C318.732 168.081 316.211 170.374 319.294 173.865C340.641 198.032 385.331 224.648 406.138 234.57C411.087 236.929 411.996 233.564 399.768 246.946C388.399 259.388 388.624 262.66 373.557 255.479ZM431.33 260.756C422.841 272.288 414.819 282.993 402.239 289.594C390.087 295.972 392.162 259.495 392.838 258.827C446.077 206.079 441.46 203.21 446.052 200.191C447.09 201.881 448.269 213.858 448.345 213.866C446.334 232.227 444.367 243.05 431.333 260.758L431.33 260.756ZM489.308 99.8109C479.406 149.931 447.77 195.516 412.887 232.849C408.456 237.589 316.781 172.728 319.502 166.831C340.049 122.293 374.532 69.4106 417.115 46.3644C425.546 50.1237 444.479 51.1019 482.228 90.6374C489.13 97.8655 489.681 97.9093 489.305 99.8081L489.308 99.8109ZM489.966 94.8323C487.398 91.5881 474.488 68.7913 436.692 50.7978C426.601 45.9918 421.126 45.0849 420.137 44.6656C422.86 41.1694 466.522 20.6331 483.828 17.3369C491.358 15.9039 490.84 17.4054 491.87 23.8006C495.69 47.4769 492.709 86.3246 489.966 94.8323Z" fill="#2A2A2A"/>
<path d="M310.931 248.589C309.183 246.984 309.15 246.452 304.416 253.118C293.656 268.268 286.984 284.549 291.762 281.606C295.966 279.02 294.393 277.535 285.548 301.206C280.093 315.807 280.2 315.613 281.276 316.251C282.435 316.939 282.986 315.637 286.556 312.053C286.562 311.338 286.792 311.527 286.751 311.908C286.746 311.971 280.923 324.279 280.463 325.488C276.654 335.461 312.608 300.118 320.239 293.378C320.395 295.953 319.631 301.126 321.393 299.241C326.593 293.668 333.942 281.533 337.699 274.529C342.762 265.09 336.49 272.06 310.931 248.584V248.589Z" fill="#0867FF"/>
<path d="M378.138 105.014C365.868 120.819 366.784 143.922 381.459 158.565C397.962 175.03 425.576 176.249 442.183 156.222C457.568 137.67 454.266 112.673 437.98 98.3507C419.496 82.0943 391.671 87.5853 378.141 105.014H378.138ZM378.445 150.164C370.477 136.922 370.877 121.561 378.163 109.831C390.011 90.7554 415.725 86.1933 432.376 97.7424C449.236 109.434 455.96 133.96 441.446 153.14C424.915 174.989 392.296 173.183 378.445 150.164Z" fill="#C1FF00"/>
<path d="M430.253 105.02C409.881 89.3529 379.484 103.617 379.601 130.376C379.037 138.262 384.887 151.65 397.461 157.995C428.812 173.819 460.464 128.253 430.253 105.02ZM391.92 118.835C394.71 115.58 414.24 109.333 416.506 109.889C417.005 110.013 417.233 110.539 416.572 111.084C416.397 111.229 397.05 121.047 392.288 121.049C391.145 121.049 390.63 120.342 391.92 118.835ZM431.683 136.536C430.842 137.774 402.571 149.866 400.721 149.74C400.447 149.669 399.107 149.775 398.732 148.707C398.507 148.079 398.814 147.397 399.214 147.074C404.837 142.528 433.875 133.25 431.683 136.536ZM429.669 121.466C390.263 136.741 389.175 137.286 388.695 137.043C379.185 132.289 429.513 118.235 433.396 118.523C433.914 118.548 434.062 118.783 434.094 118.981C434.158 119.37 434.212 119.707 429.667 121.468L429.669 121.466Z" fill="#0867FF"/>
</svg>
