<?xml version="1.0" encoding="utf-8"?>
<svg viewBox="0 0 500 500" xmlns="http://www.w3.org/2000/svg">
  <defs/>
  <path opacity="1.000000" d="M 243.14 242.443 C 243.138 264.444 242.902 285.124 243.245 305.799 C 243.386 314.191 240.376 317.193 231.794 317.514 C 191.221 319.073 191.234 319.297 191.234 279.468 C 191.242 230.616 191.259 181.776 191.152 132.935 C 191.146 128.346 192.723 122.932 187.091 120.026 C 179.703 116.202 172.267 120.763 172.045 129.846 C 171.707 144.331 171.954 158.839 171.954 171.255 C 146.639 188.222 126.246 207.314 114.525 233.819 C 110.442 243.065 105.755 246.892 95.916 246.11 C 87.177 245.412 78.33 245.728 69.552 246.022 C 61.432 246.285 57.779 243.031 60.076 234.921 C 68.908 203.723 83.365 174.286 110.027 156.421 C 125.264 146.229 125.361 136.156 125.252 122.538 C 125.149 110.659 125.522 98.768 125.134 86.896 C 124.876 78.68 127.655 74.983 136.427 75.019 C 189.202 75.264 241.976 75.299 294.742 75 C 304.316 74.949 306.776 79.09 306.603 87.728 C 306.25 105.325 306.574 122.923 306.521 140.519 C 306.503 146.093 307.073 149.939 313.948 152.243 C 325.795 156.219 331.402 167.842 338.704 176.981 C 354.225 196.395 365.039 218.128 369.366 244.589 C 353.613 247.15 338.446 245.715 323.361 245.708 C 318.87 245.707 318.056 241.638 316.606 238.557 C 306.486 217.186 292.559 199.116 274.023 184.033 C 265.102 176.776 256.825 167.412 259.656 153.215 C 260.994 146.453 259.977 139.189 259.847 132.146 C 259.736 126.172 261.341 118.89 251.405 119.363 C 242.029 119.803 243.272 126.82 243.188 132.872 C 243.088 141.227 243.163 149.591 243.154 157.95 C 243.152 185.678 243.152 213.399 243.14 242.443 Z" style="fill: rgb(8, 103, 255); transform-origin: 194.27px 261.407px;"/>
  <path opacity="1.000000" d="M 167.858 439.235 C 98.486 418.866 64.699 371.122 56.177 302.26 C 54.608 289.528 54.043 276.978 54 264.287 C 53.983 259.614 54.642 255.135 60.787 255.101 C 76.05 255.022 91.321 255.082 107.58 255.082 C 103.512 282.431 107.238 307.183 118.956 330.423 C 139.418 371 172.74 391.406 218 392.125 C 241.07 392.501 241.301 392.227 237.696 414.652 C 235.904 425.747 233.113 436.685 230.76 447.813 C 209.093 446.729 188.594 446.193 167.858 439.235 Z" style="fill: rgb(193, 255, 0); transform-origin: 194.27px 261.407px;"/>
  <path opacity="1.000000" d="M 309.563 270.597 C 314.813 270.463 319.805 270.108 319.877 265.219 C 320.02 253.565 327.816 254.729 335.316 254.792 C 336.623 254.801 337.942 254.801 339.25 254.801 C 378.139 254.774 379.427 255.55 377.436 294.924 C 375.671 330.16 366.031 362.732 341.999 390.126 C 335.706 397.288 331.949 396.186 326.158 390.686 C 317.939 382.879 309.726 374.933 300.671 368.16 C 293.92 363.137 293.677 359.548 299.172 353.528 C 307.768 344.113 314 333.157 317.875 319.944 C 299.172 313.612 279.935 315.479 259.98 313.554 C 262.052 299.239 266.143 286.936 270.66 274.767 C 272.466 269.885 277.007 270.804 280.785 270.727 C 289.989 270.55 299.186 270.635 309.563 270.597 Z" style="fill: rgb(193, 255, 0); transform-origin: 194.27px 261.407px;"/>
</svg>