<svg width="90" height="93" viewBox="0 0 90 93" fill="none" xmlns="http://www.w3.org/2000/svg">
<path d="M37.3786 46.5509H18.7896C17.8036 46.5509 16.858 46.1431 16.1608 45.4172C15.4635 44.6912 15.0718 43.7066 15.0718 42.68V29.1317C15.0718 28.105 15.4635 27.1205 16.1608 26.3945C16.858 25.6686 17.8036 25.2607 18.7896 25.2607H33.6608C34.6468 25.2607 35.5924 25.6686 36.2896 26.3945C36.9869 27.1205 37.3786 28.105 37.3786 29.1317V46.5509ZM37.3786 46.5509C37.3786 56.2283 33.6608 62.0347 22.5074 67.8411M74.5564 46.5509H55.9675C54.9815 46.5509 54.0358 46.1431 53.3386 45.4172C52.6414 44.6912 52.2497 43.7066 52.2497 42.68V29.1317C52.2497 28.105 52.6414 27.1205 53.3386 26.3945C54.0358 25.6686 54.9815 25.2607 55.9675 25.2607H70.8386C71.8246 25.2607 72.7703 25.6686 73.4675 26.3945C74.1647 27.1205 74.5564 28.105 74.5564 29.1317V46.5509ZM74.5564 46.5509C74.5564 56.2283 70.8386 62.0347 59.6853 67.8411" stroke="#0867FF" stroke-width="3" stroke-linecap="round"/>
</svg>
