<svg width="259" height="259" viewBox="0 0 259 259" fill="none" xmlns="http://www.w3.org/2000/svg">
<g clip-path="url(#clip0_84_67)">
<path d="M29.0733 224.713C28.3125 218.987 24.8236 214.367 20.0387 211.921C19.379 211.507 18.4516 211.434 17.7835 211.743C17.2317 211.998 14.3983 213.518 12.657 214.504C11.7061 214.399 10.1086 214.696 8.77593 215.41C4.51315 217.313 5.20678 216.962 3.45575 217.841C0.458519 219.346 0.497939 219.247 0.495173 219.466L1.35961e-05 258.754C-0.00206109 258.958 0.233762 259.074 0.39213 258.947C5.05879 255.241 20.074 238.657 24.1881 233.85C24.7628 233.273 25.0996 232.458 25.0622 231.534C26.2462 230.558 27.6397 229.215 28.5587 227.984C29.3063 226.982 29.2206 225.9 29.0726 224.713H29.0733ZM26.6901 229.009C26.26 229.457 26.1563 229.579 24.9965 230.561C24.5048 223.987 21.0747 217.89 14.8631 215.135C14.4613 214.915 14.0456 214.769 13.6328 214.669C18.2974 212.218 18.056 211.959 19.1639 212.176C20.0256 212.552 21.0103 213.061 21.9398 213.799C22.6908 214.396 23.4979 214.973 24.2247 215.775C26.3796 218.047 27.6279 220.668 28.3015 223.817L28.5152 225.317C28.8679 226.913 27.872 227.778 26.6901 229.008V229.009Z" fill="#0867FF"/>
<path d="M20.408 214.212C19.8195 213.385 18.3471 213.343 18.1438 214.567C18.0725 214.994 18.2855 215.42 18.6389 215.704C19.5621 216.321 20.8651 215.131 20.408 214.212Z" fill="#0867FF"/>
<path fill-rule="evenodd" clip-rule="evenodd" d="M43.1173 190.66C37.6506 192.766 31.3636 196.957 27.9591 203.223C26.6268 205.796 26.2286 207.295 25.9659 208.284C25.7138 209.232 25.5865 209.711 24.8775 210.22C24.0481 210.815 23.7917 210.982 23.5802 211.119C23.2692 211.321 23.0549 211.459 21.2607 212.804C21.5007 212.954 21.7358 213.109 21.9668 213.27C23.1452 212.463 24.4758 211.536 25.4114 210.766C25.955 210.152 26.6085 209.108 26.76 208.272C27.52 205.219 29.6141 200.813 33.2136 197.601C36.1569 194.873 39.3139 192.822 42.596 191.504C42.6426 191.486 42.69 191.467 42.7382 191.448C42.8589 191.181 42.9854 190.918 43.1173 190.66ZM41.1792 196.926C41.1431 196.958 41.107 196.989 41.0712 197.02C40.966 197.126 41.0144 197.311 41.1158 197.453C41.1346 197.277 41.1558 197.101 41.1792 196.926ZM45.1449 211.763C45.2875 211.939 45.433 212.111 45.5817 212.28C44.2285 213.572 43.5289 214.444 42.8308 215.316C41.9779 216.379 41.1275 217.44 39.0912 219.258C38.0297 220.323 36.6853 220.963 35.1991 221.247C34.4211 221.247 33.6424 221.388 32.9349 221.744C31.2178 222.997 29.5283 224.329 28.843 224.881C28.8174 224.641 28.7869 224.401 28.751 224.164C28.8215 224.106 31.6472 221.843 32.5809 221.246C33.2838 220.854 33.8878 220.805 34.5095 220.755C35.1686 220.702 35.8476 220.648 36.6853 220.18C36.8257 220.087 36.9695 219.993 37.1145 219.898C37.6272 219.563 38.1545 219.218 38.5961 218.83C40.094 217.504 41.1863 216.209 42.2709 214.922C43.131 213.902 43.9863 212.888 45.0352 211.868C45.0718 211.833 45.1084 211.798 45.1449 211.763Z" fill="#0867FF"/>
<path fill-rule="evenodd" clip-rule="evenodd" d="M77.0435 131.102C79.6085 126.916 84.7993 125.869 88.8602 128.26H88.8595C89.2191 128.44 88.9321 128.899 88.6472 128.757C86.6015 128.124 85.1002 129.796 83.7399 131.311C83.2655 131.839 82.8076 132.349 82.3498 132.735C81.5013 133.446 80.5103 133.872 79.3782 134.014C78.4971 134.014 77.6168 134.258 76.8173 134.626C81.2267 137.631 84.7447 144.427 85.7502 149.681C85.8471 150.188 85.93 150.675 86.0103 151.148C86.0656 151.471 86.1188 151.788 86.1755 152.1C86.2869 152.714 86.3581 153.394 86.3816 154.058C87.2945 153.96 88.3858 154.184 89.1866 154.747C90.1437 155.516 90.4736 156.184 90.7765 156.798C91.0262 157.303 91.2578 157.771 91.8049 158.228C91.9155 158.302 92.0206 158.376 92.1244 158.449C95.8906 158.857 99.0151 159.58 100.225 160.715C101.625 162.026 101.605 164.599 100.933 166.398C100.741 166.784 100.451 167.136 100.086 167.412C103.74 167.888 105.855 171.003 106.382 174.356C106.736 175.777 106.948 177.268 107.019 178.76C107.323 181.734 107.395 184.768 107.556 191.555V191.556L107.557 191.561V191.576C107.586 192.809 107.618 194.166 107.655 195.669L107.655 195.667C107.76 199.931 107.57 208.263 107.018 212.362C106.734 214.564 105.956 216.625 104.187 218.117C102.56 219.325 100.71 220.209 98.8097 220.745C92.8035 222.44 88.6562 222.877 83.8789 222.877C83.836 222.855 83.7993 222.833 83.7696 222.812C80.9052 222.856 78.0407 222.574 75.1756 222.095C72.6285 221.74 70.2226 221.101 67.8167 220.248C65.8353 219.61 64.1369 218.544 62.7219 217.052C62.4861 216.77 62.2807 216.475 62.1016 216.168C62.2966 216.078 62.4903 215.985 62.6818 215.887C63.0919 216.607 63.6355 217.246 64.3499 217.764C65.9571 218.93 67.827 219.717 69.7274 220.25C71.8623 220.849 74.0442 221.387 76.3083 221.671C78.244 221.933 80.3955 222.062 81.9612 222.156H81.9619C83.1901 222.229 84.058 222.281 84.1776 222.359C84.706 222.32 85.2253 222.285 85.7392 222.249C90.0981 221.949 94.0531 221.677 99.5884 219.824C101.499 219.255 103.268 218.19 104.683 216.769C106.218 214.947 106.446 212.504 106.655 210.257L106.664 210.162L106.664 210.163C107.718 198.674 106.652 180.287 106.381 177.767C106.239 176.489 105.999 175.144 105.744 173.86C105.505 172.656 104.92 171.502 104.283 170.507C103.229 168.921 101.478 168.008 99.5863 167.717C98.1942 168.374 96.9584 168.839 95.0593 169.099C94.7765 169.17 94.706 168.673 94.9888 168.602C96.5455 168.247 98.0317 167.75 99.4466 167.039C100.65 166.4 100.72 164.908 100.72 163.629C100.72 162.989 100.579 162.279 100.296 161.71C99.9425 161.213 99.4535 160.774 98.8809 160.503C97.3954 159.799 95.3159 159.307 92.9577 158.984L92.9701 158.991L92.9833 158.997L93.0082 159.01C93.8574 159.365 94.5649 159.863 95.2723 160.431C95.921 161.147 96.3906 162.041 96.6824 162.95C97.1147 162.856 97.4584 162.708 97.7059 162.509C98.069 162.205 97.986 161.912 97.7004 161.478C97.504 161.354 97.706 161.043 97.9217 161.151C98.8705 161.737 98.6389 162.721 97.7136 163.262C97.0635 163.543 96.6569 163.612 96.2267 163.686C96.0995 163.708 95.9701 163.73 95.8325 163.758C92.8152 164.372 88.2523 164.858 84.058 164.858C82.697 164.858 81.3367 164.788 79.975 164.718L79.7115 164.704L79.4882 164.692C76.7918 164.555 73.3146 164.122 70.8333 163.053C70.3651 162.897 70.0179 162.664 69.7454 162.323C69.1783 161.755 69.7316 160.774 70.3665 160.963C70.5566 161.018 70.5905 161.203 70.3063 161.296C70.0027 161.395 70.0124 161.878 70.2669 162.083C70.8305 162.459 71.7254 162.779 72.6742 163.034C73.0801 161.205 74.6617 159.941 76.2081 158.878C74.6071 159.051 73.289 159.269 72.4162 159.508C67.7337 160.251 67.132 162.075 67.251 164.339C67.251 164.978 67.3215 165.546 67.5338 166.115C67.8167 166.683 68.3118 167.18 68.9487 167.393C70.2931 167.962 71.6431 168.363 72.9819 168.672C73.2669 168.738 73.1942 169.17 72.9114 169.17C71.9916 169.027 71.1424 168.815 70.2931 168.53C69.5414 168.342 68.8457 168.041 68.1555 167.63C66.0746 168.052 64.3257 169.343 63.2883 171.23C62.7226 172.509 62.298 173.859 62.0857 175.209C61.7793 176.821 61.5594 179.685 61.401 182.83C61.159 182.736 60.9149 182.647 60.6673 182.566C60.9329 176.88 61.2696 175.291 61.9432 172.72C62.2268 171.584 62.7219 170.589 63.4294 169.737C64.3768 168.574 66.0172 167.465 67.6064 167.236C66.7316 166.416 66.614 165.081 66.614 163.982C66.2655 160.483 69.1901 159.515 72.4162 158.867C73.4135 158.594 75.1036 158.372 77.1783 158.223C77.3906 158.081 77.5974 157.94 77.7938 157.801C78.0165 157.642 78.2392 157.48 78.4639 157.317C79.2385 156.756 80.0255 156.186 80.8367 155.67C81.8851 155.004 82.5455 155.067 83.1161 155.122C83.522 155.161 83.8823 155.195 84.3042 154.96C84.7288 154.676 85.1534 154.463 85.578 154.25C85.5905 154.245 85.6029 154.24 85.6161 154.235C85.5801 153.999 85.5448 153.706 85.5034 153.362V153.361C85.2122 150.947 84.6182 146.025 81.5269 140.805C79.8229 138.006 78.6278 136.961 76.2786 134.911C75.4059 135.466 74.8042 136.084 74.2143 136.691C73.2745 137.657 72.363 138.594 70.4328 139.199C69.0096 139.556 68.0753 139.527 67.1548 139.499C66.9052 139.491 66.6569 139.483 66.3997 139.483C65.0546 139.483 63.8519 140.193 63.1445 141.402C63.0027 141.615 62.5075 141.472 62.6493 141.188C64.6763 135.663 70.531 131.918 75.9999 134.043C76.0794 132.995 76.4273 131.968 77.0435 131.102ZM68.8084 210.24C70.7198 207.283 71.8512 203.618 71.8512 199.647C71.8512 195.677 70.7198 192.012 68.8084 189.054V184.089C68.8084 181.752 72.4169 181.647 72.4169 184.089V210.873C72.4169 213.317 68.8084 213.245 68.8084 210.873V210.24Z" fill="#0867FF"/>
<path fill-rule="evenodd" clip-rule="evenodd" d="M56.4252 181.62C65.0767 181.62 72.1161 189.707 72.1161 199.647C72.1161 209.538 66.4058 215.725 58.6569 217.546C47.3913 220.193 40.2743 213.802 37.9935 205.843C39.3015 205.427 40.5801 204.924 41.8178 204.336C43.5982 211.713 49.4726 217.142 56.4252 217.142C64.7848 217.142 71.5856 209.294 71.5856 199.647C71.5856 190.001 64.7848 182.153 56.4252 182.153C48.6166 182.153 42.1681 189 41.352 197.765C39.9472 198.041 38.5688 198.439 37.2301 198.949C37.8746 187.868 47.4434 181.62 56.4252 181.62ZM43.453 197.445C44.3341 189.963 49.9429 184.177 56.7081 184.177C64.0829 184.177 70.0836 191.053 70.0836 199.505C70.0836 207.958 64.0836 214.834 56.7081 214.834C50.484 214.834 45.2394 209.937 43.7537 203.328C43.915 203.237 44.0756 203.144 44.2352 203.049C45.6171 209.502 50.6851 214.302 56.7081 214.302C63.7911 214.302 69.5525 207.665 69.5525 199.505C69.5525 191.346 63.7904 184.709 56.7081 184.709C50.2479 184.709 44.8867 190.231 43.9936 197.392C43.8132 197.408 43.6329 197.425 43.453 197.445ZM66.3989 207.775C66.3588 207.718 65.1023 206.249 64.5857 205.75C66.0103 203.815 66.2378 201.16 65.0566 199.01C63.8505 196.814 61.3443 195.73 58.919 196.257C58.3913 196.375 57.816 196.609 57.1472 196.984C56.6189 197.397 56.0165 197.72 55.2655 197.995C53.8858 198.309 52.5269 197.806 51.7198 196.684C49.7655 193.881 52.1016 189.951 55.6728 190.478C56.0871 190.478 56.0864 189.968 55.7551 189.948C54.4543 189.529 53.0041 189.881 51.8512 190.889C51.7292 190.729 51.4953 190.483 51.1896 190.162C50.9133 189.872 50.5784 189.521 50.2143 189.115C49.5234 188.343 48.9363 189.257 49.753 189.861L49.7687 189.879C50.154 190.311 50.857 191.1 51.3243 191.423C50.659 192.204 50.2724 193.151 50.1853 194.094C49.836 197.868 53.881 200.178 56.8851 198.245C56.966 198.193 57.0469 198.14 57.1279 198.088C57.6189 197.769 58.1182 197.444 58.6541 197.229C59.7392 196.866 60.9971 196.935 62.1659 197.481C66.3332 199.426 65.6548 205.717 61.4826 206.94C60.0622 207.27 57.9411 207.569 56.5393 207.136C56.2475 207.037 55.964 207.418 56.2516 207.703C57.457 208.612 61.9453 208.532 64.1327 206.292C64.5621 206.861 65.6417 208.1 65.8609 208.287C66.1195 208.505 66.668 208.215 66.3996 207.774L66.3989 207.775Z" fill="#0867FF"/>
<path d="M47.7924 197.019C40.9024 196.627 34.2357 199.226 29.964 203C29.3803 203.516 30.1154 203.539 30.3257 203.385C32.0642 202.117 33.751 200.877 35.6929 200.003C39.3402 198.362 42.1776 197.874 45.5995 197.659C47.0047 197.659 47.845 197.603 48.7834 197.872C50.1984 198.44 48.3588 199.791 47.7931 200.216C44.827 202.736 41.105 204.634 37.6742 205.686C37.5324 205.758 37.4619 205.829 37.4619 205.97C37.3443 210.104 35.5788 213.957 33.4992 216.13C32.6673 216.999 31.8008 217.835 30.8104 218.616C30.5981 218.829 30.881 219.185 31.1638 219.043C32.2959 218.332 33.2655 217.463 34.0649 216.485C34.8927 215.472 35.6216 214.495 36.188 213.359C37.3568 211.15 37.9909 208.673 38.0912 206.19C41.6922 205.048 45.0179 203.226 47.9342 200.855L49.4204 199.576C49.7744 199.221 49.9867 198.724 49.9867 198.226C49.7744 197.231 48.6423 197.09 47.7931 197.018L47.7924 197.019Z" fill="#0867FF"/>
</g>
<defs>
<clipPath id="clip0_84_67">
<rect width="259" height="259" fill="white"/>
</clipPath>
</defs>
</svg>
