<svg width="259" height="259" viewBox="0 0 259 259" fill="none" xmlns="http://www.w3.org/2000/svg">
<path d="M57.9155 218.405C57.1548 212.702 53.6658 208.1 48.8809 205.664C48.2212 205.252 47.2938 205.179 46.6257 205.487C46.0739 205.74 43.2406 207.255 41.4992 208.237C40.5483 208.133 38.9508 208.428 37.6182 209.139C33.3554 211.034 34.049 210.685 32.298 211.561C29.3007 213.059 29.3402 212.961 29.3374 213.179L28.8422 252.31C28.8402 252.513 29.076 252.629 29.2344 252.502C33.901 248.811 48.9162 232.294 53.0303 227.505C53.605 226.931 53.9418 226.119 53.9044 225.199C55.0884 224.227 56.4819 222.889 57.401 221.663C58.1485 220.665 58.0628 219.588 57.9148 218.405H57.9155ZM55.5324 222.684C55.1022 223.13 54.9985 223.251 53.8387 224.229C53.347 217.682 49.9169 211.609 43.7053 208.866C43.3035 208.646 42.8879 208.501 42.475 208.402C47.1396 205.96 46.8982 205.702 48.0061 205.918C48.8678 206.292 49.8526 206.8 50.782 207.535C51.5331 208.129 52.3401 208.704 53.0669 209.503C55.2219 211.765 56.4701 214.377 57.1437 217.513L57.3574 219.007C57.7101 220.597 56.7142 221.458 55.5324 222.683V222.684Z" fill="#0867FF"/>
<path d="M49.2502 207.946C48.6617 207.122 47.1893 207.08 46.986 208.3C46.9147 208.725 47.1277 209.149 47.4811 209.432C48.4044 210.047 49.7073 208.861 49.2502 207.946Z" fill="#0867FF"/>
<path fill-rule="evenodd" clip-rule="evenodd" d="M71.9596 184.488C66.4928 186.586 60.2058 190.76 56.8014 197.001C55.469 199.564 55.0708 201.056 54.8082 202.041C54.556 202.986 54.4287 203.463 53.7198 203.97C52.8903 204.563 52.634 204.729 52.4224 204.865C52.1114 205.066 51.8972 205.204 50.1029 206.543C50.3429 206.693 50.578 206.848 50.809 207.008C51.9874 206.204 53.318 205.28 54.2537 204.514C54.7972 203.902 55.4508 202.862 55.6022 202.029C56.3622 198.989 58.4563 194.601 62.0559 191.402C64.9991 188.684 68.1561 186.642 71.4383 185.329C71.4848 185.31 71.5322 185.292 71.5804 185.273C71.7011 185.007 71.8276 184.745 71.9596 184.488ZM70.0214 190.729C69.9853 190.76 69.9493 190.792 69.9134 190.823C69.8083 190.928 69.8566 191.112 69.958 191.254C69.9769 191.079 69.998 190.904 70.0214 190.729ZM73.9871 205.507C74.1297 205.682 74.2753 205.854 74.4239 206.022C73.0708 207.308 72.3711 208.177 71.673 209.045C70.8202 210.105 69.9697 211.162 67.9334 212.971C66.8719 214.033 65.5275 214.67 64.0413 214.953C63.2633 214.953 62.4846 215.094 61.7772 215.448C60.06 216.696 58.3705 218.023 57.6852 218.572C57.6596 218.333 57.6292 218.094 57.5932 217.858C57.6637 217.801 60.4895 215.546 61.4231 214.952C62.1261 214.562 62.7301 214.513 63.3518 214.463C64.0108 214.41 64.6898 214.356 65.5275 213.89C65.6679 213.797 65.8117 213.704 65.9567 213.609C66.4695 213.276 66.9967 212.932 67.4383 212.546C68.9363 211.224 70.0285 209.935 71.1131 208.653C71.9733 207.637 72.8285 206.628 73.8774 205.612C73.9141 205.576 73.9506 205.541 73.9871 205.507Z" fill="#0867FF"/>
<path fill-rule="evenodd" clip-rule="evenodd" d="M105.886 125.168C108.451 120.999 113.642 119.956 117.702 122.337H117.702C118.061 122.516 117.774 122.974 117.489 122.833C115.444 122.202 113.942 123.867 112.582 125.376C112.108 125.903 111.65 126.41 111.192 126.794C110.344 127.503 109.352 127.927 108.22 128.068C107.339 128.068 106.459 128.312 105.66 128.678C110.069 131.671 113.587 138.44 114.592 143.673C114.689 144.177 114.772 144.663 114.852 145.134C114.908 145.456 114.961 145.771 115.018 146.082C115.129 146.694 115.2 147.371 115.224 148.032C116.137 147.934 117.228 148.158 118.029 148.718C118.986 149.484 119.316 150.15 119.619 150.761C119.868 151.264 120.1 151.731 120.647 152.186C120.758 152.26 120.863 152.333 120.967 152.406C124.733 152.812 127.857 153.532 129.068 154.662C130.467 155.969 130.447 158.531 129.775 160.323C129.583 160.707 129.293 161.059 128.928 161.333C132.582 161.808 134.697 164.91 135.224 168.249C135.578 169.664 135.79 171.15 135.861 172.636C136.165 175.598 136.237 178.62 136.398 185.38V185.38L136.399 185.385V185.4C136.429 186.629 136.46 187.98 136.498 189.477L136.497 189.475C136.602 193.722 136.412 202.02 135.86 206.103C135.577 208.297 134.799 210.349 133.029 211.835C131.402 213.038 129.552 213.919 127.652 214.453C121.646 216.141 117.498 216.576 112.721 216.576C112.678 216.554 112.642 216.533 112.612 216.511C109.747 216.556 106.883 216.275 104.018 215.798C101.471 215.444 99.0648 214.807 96.6589 213.958C94.6776 213.322 92.9791 212.26 91.5642 210.774C91.3283 210.494 91.1229 210.2 90.9438 209.894C91.1388 209.805 91.3325 209.712 91.524 209.614C91.9341 210.332 92.4777 210.968 93.1921 211.484C94.7993 212.645 96.6693 213.429 98.5697 213.96C100.705 214.556 102.886 215.092 105.151 215.375C107.086 215.637 109.238 215.765 110.803 215.858H110.804C112.032 215.931 112.9 215.983 113.02 216.061C113.548 216.022 114.068 215.987 114.581 215.951C118.94 215.652 122.895 215.381 128.431 213.536C130.341 212.969 132.11 211.908 133.525 210.493C135.061 208.678 135.288 206.245 135.498 204.007L135.507 203.912L135.506 203.913C136.56 192.47 135.494 174.156 135.223 171.646C135.081 170.373 134.841 169.034 134.586 167.755C134.348 166.557 133.762 165.406 133.125 164.416C132.072 162.836 130.32 161.927 128.429 161.637C127.036 162.292 125.801 162.754 123.902 163.014C123.619 163.084 123.548 162.589 123.831 162.518C125.388 162.164 126.874 161.669 128.289 160.962C129.492 160.325 129.563 158.839 129.563 157.565C129.563 156.928 129.421 156.22 129.138 155.654C128.785 155.159 128.296 154.721 127.723 154.451C126.238 153.751 124.158 153.261 121.8 152.939L121.812 152.945L121.826 152.952L121.85 152.965C122.7 153.318 123.407 153.814 124.115 154.38C124.763 155.093 125.233 155.983 125.525 156.889C125.957 156.795 126.301 156.648 126.548 156.449C126.911 156.147 126.828 155.855 126.543 155.423C126.346 155.299 126.548 154.99 126.764 155.097C127.713 155.68 127.481 156.66 126.556 157.2C125.906 157.479 125.499 157.548 125.069 157.622C124.942 157.644 124.812 157.666 124.675 157.694C121.657 158.305 117.095 158.79 112.9 158.79C111.539 158.79 110.179 158.72 108.817 158.649L108.554 158.636L108.33 158.624C105.634 158.487 102.157 158.056 99.6755 156.992C99.2073 156.836 98.8601 156.604 98.5877 156.264C98.0206 155.699 98.5738 154.721 99.2087 154.909C99.3989 154.965 99.4327 155.149 99.1485 155.242C98.8449 155.34 98.8546 155.821 99.1091 156.025C99.6727 156.4 100.568 156.719 101.516 156.973C101.922 155.151 103.504 153.891 105.05 152.833C103.449 153.006 102.131 153.223 101.258 153.46C96.5759 154.2 95.9742 156.017 96.0932 158.272C96.0932 158.909 96.1637 159.475 96.376 160.041C96.6589 160.607 97.154 161.102 97.791 161.314C99.1354 161.881 100.485 162.28 101.824 162.588C102.109 162.653 102.036 163.083 101.754 163.083C100.834 162.942 99.9846 162.73 99.1354 162.447C98.3836 162.259 97.6879 161.96 96.9977 161.55C94.9168 161.971 93.1679 163.256 92.1305 165.136C91.5648 166.41 91.1402 167.754 90.9279 169.099C90.6215 170.705 90.4016 173.557 90.2433 176.69C90.0012 176.595 89.7571 176.508 89.5095 176.427C89.7751 170.763 90.1119 169.18 90.7855 166.62C91.069 165.488 91.5641 164.498 92.2716 163.649C93.2191 162.491 94.8594 161.386 96.4486 161.158C95.5738 160.341 95.4563 159.012 95.4563 157.917C95.1077 154.432 98.0323 153.468 101.258 152.822C102.256 152.55 103.946 152.329 106.021 152.181C106.233 152.039 106.44 151.899 106.636 151.761C106.859 151.602 107.081 151.441 107.306 151.279C108.081 150.72 108.868 150.151 109.679 149.638C110.727 148.975 111.388 149.038 111.958 149.092C112.364 149.131 112.725 149.165 113.146 148.931C113.571 148.648 113.996 148.436 114.42 148.223C114.433 148.218 114.445 148.213 114.458 148.208C114.422 147.974 114.387 147.682 114.346 147.339V147.338C114.054 144.934 113.46 140.032 110.369 134.833C108.665 132.045 107.47 131.003 105.121 128.962C104.248 129.515 103.646 130.131 103.057 130.735C102.117 131.697 101.205 132.63 99.2751 133.233C97.8518 133.589 96.9175 133.56 95.9971 133.531C95.7474 133.523 95.4991 133.516 95.2419 133.516C93.8968 133.516 92.6942 134.223 91.9867 135.427C91.8449 135.639 91.3498 135.497 91.4915 135.214C93.5185 129.711 99.3733 125.981 104.842 128.097C104.922 127.053 105.27 126.03 105.886 125.168ZM97.6506 203.99C99.5621 201.045 100.693 197.394 100.693 193.44C100.693 189.485 99.5621 185.834 97.6506 182.889V177.943C97.6506 175.615 101.259 175.511 101.259 177.943V204.62C101.259 207.054 97.6506 206.983 97.6506 204.62V203.99Z" fill="#0867FF"/>
<path fill-rule="evenodd" clip-rule="evenodd" d="M85.2675 175.484C93.9189 175.484 100.958 183.539 100.958 193.439C100.958 203.291 95.2481 209.453 87.4991 211.266C76.2335 213.903 69.1165 207.537 66.8357 199.611C68.1438 199.196 69.4223 198.695 70.66 198.109C72.4404 205.457 78.3148 210.864 85.2675 210.864C93.6271 210.864 100.428 203.047 100.428 193.439C100.428 183.832 93.6271 176.015 85.2675 176.015C77.4588 176.015 71.0103 182.835 70.1942 191.564C68.7894 191.84 67.411 192.236 66.0723 192.744C66.7168 181.708 76.2856 175.484 85.2675 175.484ZM72.2952 191.246C73.1763 183.794 78.7852 178.031 85.5503 178.031C92.9251 178.031 98.9258 184.88 98.9258 193.298C98.9258 201.717 92.9258 208.566 85.5503 208.566C79.3262 208.566 74.0817 203.688 72.5959 197.106C72.7572 197.015 72.9178 196.922 73.0774 196.827C74.4593 203.255 79.5273 208.035 85.5503 208.035C92.6333 208.035 98.3947 201.425 98.3947 193.298C98.3947 185.172 92.6326 178.561 85.5503 178.561C79.0902 178.561 73.7289 184.061 72.8359 191.193C72.6554 191.209 72.4752 191.226 72.2952 191.246ZM95.2412 201.535C95.201 201.478 93.9445 200.015 93.4279 199.517C94.8525 197.59 95.08 194.946 93.8988 192.804C92.6928 190.618 90.1865 189.538 87.7612 190.062C87.2336 190.18 86.6582 190.414 85.9894 190.787C85.4611 191.199 84.8587 191.52 84.1077 191.793C82.728 192.107 81.3691 191.606 80.5621 190.488C78.6077 187.697 80.9438 183.782 84.515 184.306C84.9293 184.306 84.9286 183.799 84.5973 183.779C83.2965 183.362 81.8463 183.712 80.6935 184.717C80.5714 184.557 80.3375 184.312 80.0318 183.992C79.7555 183.704 79.4206 183.353 79.0565 182.949C78.3657 182.18 77.7785 183.091 78.5953 183.692L78.6109 183.71C78.9962 184.141 79.6992 184.926 80.1665 185.248C79.5012 186.026 79.1146 186.969 79.0275 187.908C78.6783 191.667 82.7232 193.968 85.7273 192.043C85.8083 191.991 85.8892 191.939 85.9701 191.886C86.4611 191.569 86.9604 191.245 87.4964 191.031C88.5814 190.669 89.8394 190.738 91.0081 191.282C95.1755 193.219 94.497 199.485 90.3248 200.703C88.9044 201.031 86.7834 201.329 85.3816 200.898C85.0897 200.8 84.8062 201.179 85.0939 201.464C86.2993 202.368 90.7875 202.289 92.9749 200.058C93.4044 200.625 94.4839 201.858 94.7031 202.044C94.9618 202.262 95.5102 201.973 95.2418 201.533L95.2412 201.535Z" fill="#0867FF"/>
<path d="M76.6346 190.822C69.7446 190.432 63.078 193.02 58.8062 196.779C58.2225 197.292 58.9576 197.315 59.1679 197.162C60.9065 195.899 62.5932 194.664 64.5351 193.794C68.1824 192.159 71.0199 191.673 74.4417 191.459C75.847 191.459 76.6872 191.403 77.6257 191.671C79.0406 192.237 77.201 193.582 76.6353 194.006C73.6692 196.516 69.9472 198.407 66.5164 199.454C66.3746 199.526 66.3041 199.596 66.3041 199.737C66.1865 203.855 64.421 207.692 62.3414 209.856C61.5095 210.722 60.643 211.555 59.6527 212.333C59.4403 212.545 59.7232 212.899 60.006 212.757C61.1381 212.05 62.1077 211.184 62.9071 210.209C63.7349 209.201 64.4639 208.228 65.0302 207.096C66.199 204.896 66.8331 202.429 66.9334 199.956C70.5344 198.819 73.8601 197.003 76.7764 194.642L78.2626 193.369C78.6167 193.014 78.829 192.519 78.829 192.024C78.6167 191.033 77.4846 190.892 76.6353 190.821L76.6346 190.822Z" fill="#0867FF"/>
</svg>
