<svg width="26" height="25" viewBox="0 0 26 25" fill="none" xmlns="http://www.w3.org/2000/svg">
<g clip-path="url(#clip0_353_345)">
<path d="M12.9776 13.1406C12.0242 13.1406 11.1097 13.5194 10.4355 14.1936C9.76133 14.8678 9.38257 15.7822 9.38257 16.7357C9.38257 17.6891 9.76133 18.6036 10.4355 19.2778C11.1097 19.952 12.0242 20.3307 12.9776 20.3307C13.9311 20.3307 14.8455 19.952 15.5197 19.2778C16.1939 18.6036 16.5727 17.6891 16.5727 16.7357C16.5727 15.7822 16.1939 14.8678 15.5197 14.1936C14.8455 13.5194 13.9311 13.1406 12.9776 13.1406ZM11.4369 16.7357C11.4369 16.327 11.5992 15.9352 11.8882 15.6462C12.1771 15.3573 12.569 15.1949 12.9776 15.1949C13.3862 15.1949 13.7781 15.3573 14.0671 15.6462C14.356 15.9352 14.5184 16.327 14.5184 16.7357C14.5184 17.1443 14.356 17.5362 14.0671 17.8251C13.7781 18.1141 13.3862 18.2764 12.9776 18.2764C12.569 18.2764 12.1771 18.1141 11.8882 17.8251C11.5992 17.5362 11.4369 17.1443 11.4369 16.7357Z" fill="#0867FF"/>
<path d="M18.6538 5.55631L15.3885 0.978271L3.38207 10.5699L2.71648 10.5627V10.5729H2.19263V22.8988H23.7629V10.5729H22.7748L20.8088 4.82189L18.6538 5.55631ZM20.6044 10.5729H10.3041L17.9759 7.9578L19.5392 7.45758L20.6044 10.5729ZM16.6242 6.24861L8.7048 8.94798L14.9766 3.93751L16.6242 6.24861ZM4.24694 18.9638V14.5059C4.68029 14.3524 5.07391 14.104 5.3991 13.779C5.72428 13.454 5.97284 13.0605 6.12664 12.6273H19.8289C19.9826 13.0607 20.2312 13.4543 20.5563 13.7795C20.8815 14.1047 21.2752 14.3532 21.7086 14.507V18.9648C21.2752 19.1185 20.8815 19.3671 20.5563 19.6923C20.2312 20.0174 19.9826 20.4111 19.8289 20.8445H6.12869C5.97481 20.4107 5.72601 20.0168 5.40046 19.6914C5.07491 19.366 4.68081 19.1174 4.24694 18.9638Z" fill="#0867FF"/>
</g>
<defs>
<clipPath id="clip0_353_345">
<rect width="24.6518" height="24.6518" fill="white" transform="translate(0.651855 0.30127)"/>
</clipPath>
</defs>
</svg>
