<svg width="26" height="25" viewBox="0 0 26 25" fill="none" xmlns="http://www.w3.org/2000/svg">
<g clip-path="url(#clip0_331_750)">
<path d="M12.9779 13.1406C12.0244 13.1406 11.11 13.5194 10.4358 14.1936C9.76158 14.8678 9.38281 15.7822 9.38281 16.7357C9.38281 17.6891 9.76158 18.6036 10.4358 19.2778C11.11 19.952 12.0244 20.3307 12.9779 20.3307C13.9313 20.3307 14.8457 19.952 15.5199 19.2778C16.1941 18.6036 16.5729 17.6891 16.5729 16.7357C16.5729 15.7822 16.1941 14.8678 15.5199 14.1936C14.8457 13.5194 13.9313 13.1406 12.9779 13.1406ZM11.4371 16.7357C11.4371 16.327 11.5995 15.9352 11.8884 15.6462C12.1773 15.3573 12.5692 15.1949 12.9779 15.1949C13.3865 15.1949 13.7784 15.3573 14.0673 15.6462C14.3563 15.9352 14.5186 16.327 14.5186 16.7357C14.5186 17.1443 14.3563 17.5362 14.0673 17.8251C13.7784 18.1141 13.3865 18.2764 12.9779 18.2764C12.5692 18.2764 12.1773 18.1141 11.8884 17.8251C11.5995 17.5362 11.4371 17.1443 11.4371 16.7357Z" fill="#2A2A2A"/>
<path d="M18.654 5.55631L15.3886 0.978271L3.3822 10.5699L2.7166 10.5627V10.5729H2.19275V22.8988H23.763V10.5729H22.7749L20.8089 4.82189L18.654 5.55631ZM20.6045 10.5729H10.3042L17.976 7.9578L19.5394 7.45758L20.6045 10.5729ZM16.6243 6.24861L8.70492 8.94798L14.9767 3.93751L16.6243 6.24861ZM4.24706 18.9638V14.5059C4.68041 14.3524 5.07403 14.104 5.39922 13.779C5.72441 13.454 5.97296 13.0605 6.12676 12.6273H19.829C19.9828 13.0607 20.2313 13.4543 20.5565 13.7795C20.8817 14.1047 21.2753 14.3532 21.7087 14.507V18.9648C21.2753 19.1185 20.8817 19.3671 20.5565 19.6923C20.2313 20.0174 19.9828 20.4111 19.829 20.8445H6.12881C5.97493 20.4107 5.72613 20.0168 5.40058 19.6914C5.07503 19.366 4.68093 19.1174 4.24706 18.9638Z" fill="#2A2A2A"/>
</g>
<defs>
<clipPath id="clip0_331_750">
<rect width="24.6518" height="24.6518" fill="white" transform="translate(0.651978 0.30127)"/>
</clipPath>
</defs>
</svg>
