<svg width="49" height="41" viewBox="0 0 49 41" fill="none" xmlns="http://www.w3.org/2000/svg">
<circle cx="17" cy="17" r="17" fill="#C1FF00"/>
<path d="M27 27H35V29H27V27ZM27 22H39V24H27V22ZM27 32H32V34H27V32Z" fill="#2A2A2A"/>
<path d="M42 14H39V13C39 12.4696 38.7893 11.9609 38.4142 11.5858C38.0391 11.2107 37.5304 11 37 11H29C28.4696 11 27.9609 11.2107 27.5858 11.5858C27.2107 11.9609 27 12.4696 27 13V14H24C23.4696 14 22.9609 14.2107 22.5858 14.5858C22.2107 14.9609 22 15.4696 22 16V37C22 37.5304 22.2107 38.0391 22.5858 38.4142C22.9609 38.7893 23.4696 39 24 39H42C42.5304 39 43.0391 38.7893 43.4142 38.4142C43.7893 38.0391 44 37.5304 44 37V16C44 15.4696 43.7893 14.9609 43.4142 14.5858C43.0391 14.2107 42.5304 14 42 14ZM29 13H37V17H29V13ZM42 37H24V16H27V19H39V16H42V37Z" fill="#2A2A2A"/>
</svg>
