<svg width="49" height="41" viewBox="0 0 49 41" fill="none" xmlns="http://www.w3.org/2000/svg">
<circle cx="17" cy="17" r="17" fill="#C1FF00"/>
<path d="M41 30H43V35H41V30ZM37 25H39V35H37V25ZM28 35C26.6744 34.9984 25.4036 34.4711 24.4662 33.5338C23.5289 32.5964 23.0016 31.3256 23 30H25C25 30.5933 25.1759 31.1734 25.5056 31.6667C25.8352 32.1601 26.3038 32.5446 26.8519 32.7716C27.4001 32.9987 28.0033 33.0581 28.5853 32.9424C29.1672 32.8266 29.7018 32.5409 30.1213 32.1213C30.5409 31.7018 30.8266 31.1672 30.9424 30.5853C31.0581 30.0033 30.9987 29.4001 30.7716 28.8519C30.5446 28.3038 30.1601 27.8352 29.6667 27.5056C29.1734 27.1759 28.5933 27 28 27V25C29.3261 25 30.5979 25.5268 31.5355 26.4645C32.4732 27.4021 33 28.6739 33 30C33 31.3261 32.4732 32.5979 31.5355 33.5355C30.5979 34.4732 29.3261 35 28 35Z" fill="#2A2A2A"/>
<path d="M45 11H21C20.4697 11.0005 19.9613 11.2114 19.5864 11.5864C19.2114 11.9613 19.0005 12.4697 19 13V37C19.0005 37.5303 19.2114 38.0387 19.5864 38.4136C19.9613 38.7886 20.4697 38.9995 21 39H45C45.5302 38.9992 46.0384 38.7882 46.4133 38.4133C46.7882 38.0384 46.9992 37.5302 47 37V13C46.9995 12.4697 46.7886 11.9613 46.4136 11.5864C46.0387 11.2114 45.5303 11.0005 45 11ZM45 20H31V13H45V20ZM29 13V20H21V13H29ZM21 37V22H45L45.002 37H21Z" fill="#2A2A2A"/>
</svg>
