<svg width="25" height="20" viewBox="0 0 25 20" fill="none" xmlns="http://www.w3.org/2000/svg">
<path d="M10.7453 13.8025C11.2344 14.2916 11.8507 14.5217 12.5942 14.4928C13.3377 14.4638 13.8757 14.1946 14.2083 13.6851L20.7821 3.82441L10.9214 10.3982C10.4127 10.7504 10.1341 11.2833 10.0856 11.9971C10.0371 12.7108 10.257 13.3126 10.7453 13.8025ZM4.465 19.085C4.03457 19.085 3.63858 18.9919 3.27702 18.8056C2.91546 18.6194 2.62668 18.3408 2.41068 17.9698C1.902 17.0503 1.5107 16.0967 1.23679 15.1091C0.962882 14.1214 0.825928 13.099 0.825928 12.0417C0.825928 10.4178 1.13427 8.89172 1.75096 7.46348C2.36764 6.03525 3.20384 4.79288 4.25957 3.73637C5.31529 2.67987 6.55766 1.84367 7.98668 1.22776C9.4157 0.61186 10.9418 0.303517 12.5649 0.302734C14.1692 0.302734 15.6757 0.60599 17.0844 1.2125C18.493 1.81901 19.7256 2.64583 20.7821 3.69294C21.8386 4.74005 22.6799 5.96286 23.306 7.36136C23.9321 8.75985 24.2549 10.2613 24.2744 11.8656C24.294 12.9417 24.1719 13.9935 23.9082 15.021C23.6445 16.0486 23.2383 17.0315 22.6897 17.9698C22.4745 18.3416 22.1861 18.6206 21.8245 18.8068C21.463 18.9931 21.0662 19.0858 20.6342 19.085H4.465Z" fill="#0867FF"/>
</svg>
