<svg width="29" height="29" viewBox="0 0 29 29" fill="none" xmlns="http://www.w3.org/2000/svg">
<path d="M12.7453 18.8025C13.2344 19.2916 13.8507 19.5217 14.5942 19.4928C15.3377 19.4638 15.8757 19.1946 16.2083 18.6851L22.7821 8.82441L12.9214 15.3982C12.4127 15.7504 12.1341 16.2833 12.0856 16.9971C12.0371 17.7108 12.257 18.3126 12.7453 18.8025ZM6.465 24.085C6.03457 24.085 5.63858 23.9919 5.27702 23.8056C4.91546 23.6194 4.62668 23.3408 4.41068 22.9698C3.902 22.0503 3.5107 21.0967 3.23679 20.1091C2.96288 19.1214 2.82593 18.099 2.82593 17.0417C2.82593 15.4178 3.13427 13.8917 3.75096 12.4635C4.36764 11.0352 5.20384 9.79288 6.25957 8.73637C7.31529 7.67987 8.55766 6.84367 9.98668 6.22776C11.4157 5.61186 12.9418 5.30352 14.5649 5.30273C16.1692 5.30273 17.6757 5.60599 19.0844 6.2125C20.493 6.81901 21.7256 7.64583 22.7821 8.69294C23.8386 9.74005 24.6799 10.9629 25.306 12.3614C25.9321 13.7599 26.2549 15.2613 26.2745 16.8656C26.294 17.9417 26.1719 18.9935 25.9082 20.021C25.6445 21.0486 25.2383 22.0315 24.6897 22.9698C24.4745 23.3416 24.1861 23.6206 23.8245 23.8068C23.463 23.9931 23.0662 24.0858 22.6342 24.085H6.465Z" fill="#2A2A2A"/>
</svg>
