<svg width="36" height="36" viewBox="0 0 36 36" fill="none" xmlns="http://www.w3.org/2000/svg">
<path fill-rule="evenodd" clip-rule="evenodd" d="M0 8.40005C0 7.44527 0.379285 6.5296 1.05442 5.85446C1.72955 5.17933 2.64522 4.80005 3.6 4.80005H32.4C33.3548 4.80005 34.2705 5.17933 34.9456 5.85446C35.6207 6.5296 36 7.44527 36 8.40005V27.6C36 28.5548 35.6207 29.4705 34.9456 30.1456C34.2705 30.8208 33.3548 31.2 32.4 31.2H3.6C2.64522 31.2 1.72955 30.8208 1.05442 30.1456C0.379285 29.4705 0 28.5548 0 27.6L0 8.40005ZM7.2 14.4C7.2 13.127 7.70571 11.9061 8.60589 11.0059C9.50606 10.1058 10.727 9.60005 12 9.60005C13.273 9.60005 14.4939 10.1058 15.3941 11.0059C16.2943 11.9061 16.8 13.127 16.8 14.4C16.8 15.6731 16.2943 16.894 15.3941 17.7942C14.4939 18.6943 13.273 19.2 12 19.2C10.727 19.2 9.50606 18.6943 8.60589 17.7942C7.70571 16.894 7.2 15.6731 7.2 14.4ZM28.8 14.4H21.6V12H28.8V14.4ZM28.8 21.6H21.6V19.2H28.8V21.6ZM12 21.6C10.6954 21.6 9.41659 21.9633 8.30683 22.6492C7.19708 23.335 6.30023 24.3164 5.7168 25.4832L4.9248 27.0624C4.83303 27.2456 4.78967 27.4492 4.79884 27.6538C4.80802 27.8584 4.86942 28.0573 4.9772 28.2315C5.08499 28.4057 5.23556 28.5494 5.4146 28.6489C5.59363 28.7484 5.79516 28.8005 6 28.8H18C18.2046 28.8 18.4059 28.7477 18.5846 28.648C18.7633 28.5483 18.9135 28.4046 19.021 28.2305C19.1285 28.0563 19.1897 27.8576 19.1988 27.6532C19.2078 27.4488 19.1645 27.2454 19.0728 27.0624L18.2832 25.4832C17.6998 24.3164 16.8029 23.335 15.6932 22.6492C14.5834 21.9633 13.3046 21.6 12 21.6Z" fill="#A4D900"/>
</svg>
