<svg width="40" height="40" viewBox="0 0 40 40" fill="none" xmlns="http://www.w3.org/2000/svg">
<path d="M25.005 35C22.9317 35 20.9817 34.6067 19.155 33.82C17.3294 33.0322 15.7411 31.9633 14.39 30.6133C13.0389 29.2633 11.9694 27.6767 11.1817 25.8533C10.3939 24.03 10 22.0806 10 20.005C10 17.9294 10.3939 15.9794 11.1817 14.155C11.9683 12.3294 13.0356 10.7411 14.3833 9.39C15.7311 8.03889 17.3183 6.96944 19.145 6.18167C20.9717 5.39389 22.9217 5 24.995 5C27.0683 5 29.0183 5.39389 30.845 6.18167C32.6706 6.96833 34.2589 8.03611 35.61 9.385C36.9611 10.7339 38.0306 12.3211 38.8183 14.1467C39.6061 15.9722 40 17.9217 40 19.995C40 22.0683 39.6067 24.0183 38.82 25.845C38.0333 27.6717 36.9644 29.26 35.6133 30.61C34.2622 31.96 32.6756 33.0294 30.8533 33.8183C29.0311 34.6072 27.0817 35.0011 25.005 35ZM25 27.5H26.6667V12.5H21.6667V14.1667H25V27.5Z" fill="#0867FF"/>
</svg>
