<svg width="42" height="42" viewBox="0 0 42 42" fill="none" xmlns="http://www.w3.org/2000/svg">
<g clip-path="url(#clip0_468_349)">
<path d="M14.8335 31.25C14.0314 31.25 13.345 30.9647 12.7743 30.394C12.2036 29.8233 11.9178 29.1364 11.9168 28.3333V12.2917C11.9168 11.4896 12.2027 10.8032 12.7743 10.2325C13.346 9.66181 14.0324 9.37597 14.8335 9.375H38.1668C38.9689 9.375 39.6558 9.66083 40.2275 10.2325C40.7991 10.8042 41.0845 11.4906 41.0835 12.2917V28.3333C41.0835 29.1354 40.7981 29.8223 40.2275 30.394C39.6568 30.9656 38.9699 31.251 38.1668 31.25H14.8335ZM10.4585 35.625V32.7083H42.5418V35.625H10.4585Z" fill="#0867FF"/>
</g>
<defs>
<clipPath id="clip0_468_349">
<rect width="42" height="42" fill="white"/>
</clipPath>
</defs>
</svg>
