<svg width="29" height="29" viewBox="0 0 29 29" fill="none" xmlns="http://www.w3.org/2000/svg">
<g clip-path="url(#clip0_331_732)">
<path d="M15.3889 2.96774L23.6061 6.04921C24.0537 6.21699 24.4395 6.51742 24.7118 6.91032C24.984 7.30322 25.1299 7.76988 25.1298 8.24791V14.5435C25.1299 16.5056 24.5835 18.4289 23.552 20.098C22.5205 21.767 21.0446 23.1159 19.2897 23.9933L15.3525 25.9608C15.1079 26.0831 14.8382 26.1468 14.5648 26.1468C14.2914 26.1468 14.0217 26.0831 13.7771 25.9608L9.83988 23.9922C8.08495 23.1147 6.60905 21.7658 5.57755 20.0968C4.54605 18.4277 3.99971 16.5044 3.99976 14.5423V8.24908C3.99946 7.77085 4.14521 7.30394 4.41751 6.9108C4.68981 6.51767 5.07567 6.21706 5.52347 6.04921L13.7407 2.96774C14.2721 2.76857 14.8575 2.76857 15.3889 2.96774ZM14.5648 9.78219C14.2773 9.78223 13.9998 9.88779 13.7849 10.0788C13.57 10.2699 13.4328 10.5332 13.3991 10.8187L13.3909 10.9561V13.3039H11.0431C10.7439 13.3042 10.4561 13.4188 10.2386 13.6242C10.021 13.8296 9.89008 14.1103 9.87254 14.409C9.85501 14.7077 9.95219 15.0018 10.1442 15.2312C10.3363 15.4606 10.6087 15.6081 10.9058 15.6434L11.0431 15.6517H13.3909V17.9994C13.3912 18.2986 13.5058 18.5864 13.7112 18.804C13.9166 19.0216 14.1973 19.1525 14.496 19.17C14.7947 19.1875 15.0888 19.0904 15.3182 18.8983C15.5477 18.7063 15.6951 18.4339 15.7305 18.1368L15.7387 17.9994V15.6517H18.0865C18.3857 15.6513 18.6735 15.5368 18.891 15.3314C19.1086 15.126 19.2395 14.8452 19.2571 14.5466C19.2746 14.2479 19.1774 13.9538 18.9854 13.7243C18.7933 13.4949 18.5209 13.3474 18.2238 13.3121L18.0865 13.3039H15.7387V10.9561C15.7387 10.6447 15.615 10.3462 15.3949 10.126C15.1747 9.90586 14.8761 9.78219 14.5648 9.78219Z" fill="#0867FF"/>
</g>
<defs>
<clipPath id="clip0_331_732">
<rect width="28.1734" height="28.1734" fill="white" transform="translate(0.478027 0.391113)"/>
</clipPath>
</defs>
</svg>
