<svg width="22" height="25" viewBox="0 0 22 25" fill="none" xmlns="http://www.w3.org/2000/svg">
<path d="M11.3889 0.967736L19.6061 4.04921C20.0537 4.21699 20.4395 4.51742 20.7118 4.91032C20.984 5.30322 21.1299 5.76988 21.1298 6.24791V12.5435C21.1299 14.5056 20.5835 16.4289 19.552 18.098C18.5205 19.767 17.0446 21.1159 15.2897 21.9933L11.3525 23.9608C11.1079 24.0831 10.8382 24.1468 10.5648 24.1468C10.2914 24.1468 10.0217 24.0831 9.77711 23.9608L5.83988 21.9922C4.08495 21.1147 2.60905 19.7658 1.57755 18.0968C0.546052 16.4277 -0.000285998 14.5044 -0.000243683 12.5423V6.24908C-0.000542321 5.77085 0.145208 5.30394 0.417507 4.9108C0.689807 4.51767 1.07567 4.21706 1.52347 4.04921L9.74072 0.967736C10.2721 0.768567 10.8575 0.768567 11.3889 0.967736ZM10.5648 7.78219C10.2773 7.78222 9.99976 7.88779 9.78489 8.07885C9.57003 8.26991 9.43276 8.53318 9.39912 8.81874L9.3909 8.95608V11.3039H7.04312C6.74392 11.3042 6.45613 11.4188 6.23857 11.6242C6.021 11.8296 5.89008 12.1103 5.87254 12.409C5.85501 12.7077 5.95219 13.0018 6.14423 13.2312C6.33626 13.4606 6.60866 13.6081 6.90577 13.6434L7.04312 13.6517H9.3909V15.9994C9.39124 16.2986 9.5058 16.5864 9.7112 16.804C9.91659 17.0216 10.1973 17.1525 10.496 17.17C10.7947 17.1875 11.0888 17.0904 11.3182 16.8983C11.5477 16.7063 11.6951 16.4339 11.7305 16.1368L11.7387 15.9994V13.6517H14.0865C14.3857 13.6513 14.6735 13.5368 14.891 13.3314C15.1086 13.126 15.2395 12.8452 15.2571 12.5466C15.2746 12.2479 15.1774 11.9538 14.9854 11.7243C14.7933 11.4949 14.5209 11.3474 14.2238 11.3121L14.0865 11.3039H11.7387V8.95608C11.7387 8.64474 11.615 8.34616 11.3949 8.12601C11.1747 7.90586 10.8761 7.78219 10.5648 7.78219Z" fill="#2A2A2A"/>
</svg>
