<svg width="39" height="39" viewBox="0 0 39 39" fill="none" xmlns="http://www.w3.org/2000/svg">
<path d="M34.125 5C34.556 5 34.9693 5.1712 35.274 5.47595C35.5788 5.7807 35.75 6.19402 35.75 6.625V32.625C35.75 33.056 35.5788 33.4693 35.274 33.7741C34.9693 34.0788 34.556 34.25 34.125 34.25H14.625C14.194 34.25 13.7807 34.0788 13.476 33.7741C13.1712 33.4693 13 33.056 13 32.625V6.625C13 6.19402 13.1712 5.7807 13.476 5.47595C13.7807 5.1712 14.194 5 14.625 5H34.125ZM27.625 18C27.194 18 26.7807 18.1712 26.476 18.476C26.1712 18.7807 26 19.194 26 19.625C26 20.056 26.1712 20.4693 26.476 20.774C26.7807 21.0788 27.194 21.25 27.625 21.25C28.056 21.25 28.4693 21.0788 28.774 20.774C29.0788 20.4693 29.25 20.056 29.25 19.625C29.25 19.194 29.0788 18.7807 28.774 18.476C28.4693 18.1712 28.056 18 27.625 18Z" fill="#A4D900"/>
</svg>
