<svg width="603" height="611" viewBox="0 0 603 611" fill="none" xmlns="http://www.w3.org/2000/svg">
<path d="M155.272 114.586L162.81 108.029L188.245 139.794L169.706 172.36L161.367 163.722L176.73 139.634L155.272 114.586ZM119.285 110.908L105.846 140.114L125.379 159.884L118.964 169.64L92.5669 143.793L110.015 106.749L119.285 110.908ZM157.678 182.244L146.805 181.605L127.56 95.4247C127.56 95.4247 138.305 96.5444 138.786 96.5444L157.678 182.244ZM496.866 35.3484C502.158 33.0771 506.135 39.4431 503.28 39.4431C502.062 39.4431 501.58 36.2441 497.539 37.2038C497.3 37.2637 497.047 37.2331 496.83 37.1178C496.612 37.0025 496.445 36.8107 496.362 36.5797C496.278 36.3486 496.283 36.0948 496.376 35.8673C496.469 35.6398 496.644 35.4549 496.866 35.3484ZM489.104 35.5723C489.104 34.7406 489.104 35.1565 489.104 35.5723C486.666 35.0925 485.896 36.9159 485.158 36.9159C482.689 36.9159 485.992 31.8615 489.745 34.0048C489.911 34.1153 490.034 34.2797 490.093 34.4702C490.152 34.6607 490.142 34.8656 490.067 35.0502C489.991 35.2347 489.854 35.3875 489.679 35.4826C489.503 35.5778 489.3 35.6095 489.104 35.5723ZM488.43 50.9273C489.071 52.9746 490.707 53.2945 490.322 54.1262C489.937 54.958 487.307 52.7827 486.826 51.3112C486.703 50.8973 486.729 50.4536 486.899 50.0566C487.069 49.6595 487.372 49.3339 487.756 49.1359C488.558 48.8041 489.28 48.308 489.877 47.6797C490.474 47.0515 490.932 46.3051 491.22 45.4891C491.248 45.3819 491.296 45.2813 491.362 45.1927C491.429 45.1042 491.512 45.0296 491.607 44.9732C491.703 44.9167 491.808 44.8796 491.918 44.8638C492.028 44.848 492.139 44.854 492.247 44.8813C492.354 44.9086 492.455 44.9567 492.544 45.0229C492.633 45.0892 492.708 45.1722 492.764 45.2672C492.821 45.3623 492.858 45.4675 492.874 45.5769C492.89 45.6864 492.884 45.7978 492.856 45.9049C492.508 46.9618 491.939 47.933 491.188 48.7546C490.436 49.5762 489.518 50.2295 488.494 50.6714C488.494 50.6714 488.398 50.8633 488.43 50.9273ZM497.828 44.0495C497.971 43.9156 498.145 43.8182 498.334 43.7657C498.524 43.7132 498.723 43.7071 498.915 43.7479C499.107 43.7888 499.287 43.8754 499.438 44.0003C499.589 44.1252 499.708 44.2848 499.784 44.4654C500.554 45.841 499.784 48.0482 498.598 48.0482C497.411 48.0482 496.609 45.1692 497.828 44.0495ZM486.762 42.0662C488.783 42.0662 488.687 46.4168 486.762 46.4168C484.838 46.4168 484.806 42.0662 486.762 42.0662ZM488.27 66.1543C488.943 65.0347 490.002 67.21 493.402 66.6981C496.801 66.1863 497.283 63.8511 498.277 64.7788C499.271 65.7065 495.903 68.4576 492.632 68.4576C490.739 68.4576 487.532 67.3699 488.27 66.1543Z" fill="#0867FF"/>
<path d="M492.151 72.3283C491.486 72.0751 490.765 72.0087 490.066 72.1364C490.066 73.224 490.354 74.4396 488.943 74.7275C485.415 75.4313 484.26 67.5299 485.094 64.107C487.083 55.9177 500.586 58.8607 502.382 67.05C504.178 75.2394 490.964 78.6623 492.151 72.3283ZM488.751 70.9208C489.585 70.0571 494.075 69.9291 493.786 72.4883C493.692 72.9096 493.692 73.3465 493.786 73.7678C494.428 74.6955 502.062 72.9681 500.811 67.3699C499.335 60.7801 488.27 57.5812 486.794 64.4909C486.298 67.3914 486.819 70.374 488.27 72.9361C488.558 73.224 488.751 73.16 488.783 73.224C488.815 73.288 488.013 71.7525 488.751 70.9208Z" fill="#0867FF"/>
<path d="M9.91101 235.987C5.38849 209.179 -2.43762 137.843 1.05847 111.004C3.07916 109.788 17.0957 97.504 75.375 73.192H75.5995C111.754 72.0528 147.934 74.4312 183.626 80.2937C195.879 82.1491 194.243 81.7332 194.371 82.2131C199.086 103.55 202.422 181.381 197.354 208.06C234.144 207.644 274.333 213.242 300.987 216.953C311.603 218.424 310.609 218.105 310.609 218.552C311.219 220.792 319.654 287.842 314.779 337.266C330.175 337.01 324.658 338.033 326.903 335.442C329.148 332.851 338.193 331.411 341.593 331.347C341.818 330.1 342.17 328.564 342.587 327.061C341.741 326.897 340.906 326.684 340.086 326.421C338.61 303.773 324.048 254.157 333.671 229.205C338.963 215.929 371.198 180.037 416.968 174.503C417.994 171.016 419.598 164.65 423.383 154.413C410.008 158.06 394.708 147.76 377.805 123.735C367.573 134.164 364.622 138.579 360.228 138.099C352.947 137.267 313.047 118.905 312.918 117.721C312.555 116.583 312.287 115.417 312.117 114.235C305.958 109.276 301.949 79.27 300.923 71.9444C300.057 65.5465 299.672 62.7634 302.27 59.7884C304.868 56.8134 331.393 41.4584 353.14 35.8922C357.855 34.5167 359.266 38.0995 360.357 42.706C363.486 55.7229 364.93 69.086 364.655 82.469C376.554 84.7402 395.767 90.2744 399.937 95.2648C401.701 97.2801 399.937 100.927 399.038 101.823C398.14 102.718 397.21 103.774 396.344 104.67C402.048 106.859 407.44 109.784 412.381 113.371C426.59 92.4177 452.474 69.6412 479.385 73.8638C479.847 73.2431 480.398 72.6934 481.021 72.2323C478.904 67.5618 481.726 63.2433 482.047 61.7397C482.881 58.1569 477.942 42.9619 483.394 29.7502C479.257 27.1271 479.706 19.1297 485.768 19.8975C480.059 10.9724 488.687 1.1196 494.107 10.3006C494.684 -2.49522 512.71 -2.14334 508.958 12.2839C508.444 14.2353 507.995 13.9474 513.191 17.1783C514.732 17.8676 516.103 18.8826 517.211 20.1531C518.318 21.4236 519.136 22.9191 519.606 24.5359C520.052 26.5444 519.756 28.6458 518.772 30.454C526.663 30.39 526.021 44.0495 521.178 50.2235C524.61 50.6714 526.053 54.798 523.359 58.5408C526.887 63.2752 519.574 67.178 517.842 61.7397C517.237 61.835 516.62 61.835 516.014 61.7397C514.474 76.135 513.512 71.5285 515.405 74.0557C545.266 72.8081 604.026 114.554 602.808 143.985C601.877 166.377 574.871 186.595 558.513 196.896C559.193 197.731 559.627 198.74 559.764 199.807C559.902 200.875 559.739 201.96 559.292 202.941C558.846 203.921 558.134 204.758 557.237 205.357C556.34 205.956 555.294 206.294 554.215 206.332C553.608 206.702 552.888 206.841 552.186 206.724C551.485 206.606 550.85 206.24 550.398 205.693C549.646 205.815 548.875 205.667 548.222 205.274C547.57 204.882 547.079 204.27 546.838 203.549C543.245 203.549 542.86 201.918 544.753 198.911C544.35 198.474 544.122 197.905 544.111 197.311C544.097 195.677 544.565 194.075 545.458 192.705C546.209 192.01 547.104 191.49 548.08 191.18C549.056 190.871 550.088 190.78 551.103 190.913C554.696 172.04 554.888 159.628 560.373 147.728C555.009 145.519 549.82 142.909 544.849 139.922C543.085 160.779 537.247 178.31 527.465 191.777C530.01 196.079 531.594 200.879 532.109 205.848C532.623 210.816 532.057 215.837 530.448 220.568C530.127 221.591 539.845 241.521 527.882 283.651C516.174 324.854 515.052 330.388 520.023 337.329C526.214 345.711 543.085 377.54 545.683 390.304C544.849 391.616 544.079 392.863 543.053 394.239C548.987 402.524 550.654 402.14 550.59 405.787C550.59 414.36 543.534 432.306 535.323 432.306C534.89 432.317 534.459 432.241 534.057 432.081C533.655 431.922 533.289 431.683 532.981 431.379C531.153 429.076 532.404 419.799 532.981 416.888C535.066 405.531 536.189 411.161 532.981 404.54L529.453 407.259C529.036 407.579 529.197 407.579 528.844 407.259C489.2 370.343 455.939 332.723 451.063 245.775C429.798 239.985 401.348 253.357 374.566 255.692C378.896 288.641 365.97 305.308 359.908 327.605L356.027 327.893C355.805 329.688 355.363 331.45 354.711 333.139C355.259 333.915 355.626 334.803 355.787 335.738C355.948 336.673 355.898 337.632 355.642 338.545C383.707 340.465 406.191 343.855 426.206 346.479C430.786 384.967 430.29 423.889 424.73 462.249C458.132 461.543 491.519 464.201 524.385 470.182C528.855 507.399 528.424 545.04 523.102 582.145C522.91 583.329 468.576 604.186 441.633 609.305C434.384 609.624 427.424 609.752 420.753 609.752C398.025 609.858 375.32 608.308 352.819 605.114C350.061 572.069 346.757 533.777 350.638 497.469C315.588 498.212 280.553 495.393 246.075 489.056C243.253 456.203 239.372 410.777 243.189 374.597C206.143 376.197 163.933 371.398 128.234 366.856C119.381 339.377 118.932 273.414 121.177 247.055C93.6574 246.159 32.0745 241.521 9.62238 236.467C10.0393 236.243 9.97516 236.371 9.91101 235.987ZM85.9275 201.502C122.354 205.808 159.005 207.945 195.686 207.9C196.296 200.83 199.76 128.246 192.832 83.4286C154.399 77.1187 115.473 74.2921 76.5297 74.9834C79.0315 119.961 81.5012 143.761 85.9275 201.502ZM201.78 331.987C238.717 335.739 275.823 337.575 312.951 337.489C312.951 330.868 314.137 254.956 308.813 219.832C282.608 216.121 233.662 210.011 197.066 209.883C197.098 217.977 193.794 227.382 201.78 331.987ZM318.307 458.122C350.702 460.745 387.877 462.057 423.126 461.801C426.936 423.922 427.419 385.784 424.57 347.822C400.963 344.975 359.33 338.961 315.228 338.929C312.02 395.454 317.12 438.736 318.307 458.122ZM424.473 463.944C422.004 505.275 420.849 521.045 424.473 576.995C456.762 580.082 489.192 581.46 521.627 581.122C525.327 544.742 525.724 508.104 522.814 471.654C490.259 466.754 457.396 464.177 424.473 463.944ZM354.455 603.354C367.285 600.603 417.706 579.362 422.741 577.219C418.345 539.759 418.345 501.916 422.741 464.456C412.606 468.839 375.849 487.648 352.53 496.989C350.606 541.071 352.595 561.608 354.455 603.354ZM247.743 487.328C260.573 484.449 311.603 460.713 316.607 458.378C312.213 424.725 308.781 373.734 313.4 339.505C302.462 344.847 244.921 374.693 244.921 374.693C243.413 418.423 245.049 431.219 247.743 487.328ZM129.934 365.384C142.346 356.939 178.302 342.64 200.113 332.499C195.654 297.886 191.902 247.919 195.013 210.299C136.894 239.346 136.381 240.145 122.974 247.055C122.236 269.448 122.46 341.04 129.613 365.416L129.934 365.384ZM11.7713 235.123C24.7936 226.966 65.7526 209.339 84.2275 201.918C79.8333 168.009 75.0543 109.468 74.7977 75.3353C64.9508 80.0058 23.4785 99.8073 2.63013 111.995C0.769836 139.826 10.5846 235.123 11.7713 235.123ZM353.717 338.257C353.974 336.786 354.006 334.77 353.268 334.099C351.442 334.686 349.515 334.893 347.606 334.706C345.697 334.519 343.846 333.942 342.17 333.011C339.252 333.203 328.571 334.578 327.897 337.234C336.557 337.489 345.025 337.681 353.717 338.257ZM352.947 332.403C353.364 330.74 353.781 328.82 353.974 327.765C350.76 327.802 347.546 327.641 344.351 327.285C343.999 328.82 343.614 330.484 343.229 331.635C346.298 332.75 349.611 333.015 352.819 332.403H352.947ZM546.773 193.537C546.149 194.595 545.807 195.796 545.779 197.023L546.613 195.552C547.126 194.656 548.987 194.912 546.228 199.295C545.843 199.903 545.073 201.15 545.234 201.438C545.394 201.726 545.523 201.758 547.351 201.63C549.179 201.502 547.704 204.029 550.334 203.741C550.847 203.741 551.2 203.741 551.488 204.157C551.658 204.463 551.939 204.692 552.272 204.799C552.606 204.906 552.968 204.882 553.285 204.733C553.605 204.541 553.734 204.285 554.247 204.413C556.909 205.277 559.699 200.478 556.749 197.055C556.655 196.98 556.579 196.886 556.527 196.778C556.475 196.67 556.448 196.551 556.448 196.432C556.448 196.312 556.475 196.194 556.527 196.086C556.579 195.978 556.655 195.883 556.749 195.808C573.395 185.763 599.793 162.667 600.755 143.921C601.428 127.926 585.584 112.603 573.491 102.334C559.071 108.867 546.948 119.565 538.691 133.044C545.706 138.143 553.23 142.506 561.143 146.064C562.514 143.537 564.231 141.212 566.243 139.154C566.316 139.072 566.405 139.006 566.505 138.958C566.605 138.911 566.713 138.883 566.823 138.877C566.933 138.871 567.043 138.887 567.147 138.924C567.251 138.96 567.347 139.017 567.429 139.09C567.512 139.164 567.578 139.253 567.626 139.352C567.674 139.451 567.701 139.559 567.707 139.669C567.713 139.779 567.697 139.889 567.661 139.993C567.624 140.097 567.567 140.192 567.494 140.274C557.166 151.918 557.871 171.4 552.643 191.873C552.636 191.984 552.605 192.093 552.553 192.192C552.501 192.29 552.429 192.377 552.341 192.446C552.254 192.516 552.153 192.566 552.044 192.594C551.936 192.622 551.823 192.627 551.713 192.609C550.872 192.389 549.993 192.358 549.139 192.519C548.284 192.679 547.476 193.027 546.773 193.537ZM512.197 93.2494C505.59 102.622 497.635 102.846 498.79 90.5623C498.824 90.4052 498.911 90.2645 499.037 90.1636C499.162 90.0628 499.318 90.0077 499.48 90.0077C499.641 90.0077 499.797 90.0628 499.923 90.1636C500.048 90.2645 500.135 90.4052 500.169 90.5623C498.982 111.547 520.953 83.9085 513.929 74.8874C513.235 78.6492 511.26 82.0567 508.338 84.5339C505.416 87.0111 501.726 88.4061 497.892 88.483C491.028 100.607 489.585 106.301 488.751 106.653C488.643 106.694 488.529 106.713 488.414 106.709C488.299 106.706 488.186 106.679 488.082 106.632C487.977 106.584 487.884 106.516 487.806 106.432C487.728 106.348 487.667 106.249 487.628 106.141C485.804 100.056 485.355 93.6427 486.313 87.3634C484.753 85.9734 483.573 84.2109 482.882 82.2413C482.192 80.2717 482.015 78.1596 482.368 76.1031C482.368 75.9164 482.442 75.7374 482.575 75.6054C482.707 75.4734 482.886 75.3993 483.074 75.3993C483.261 75.3993 483.44 75.4734 483.572 75.6054C483.705 75.7374 483.779 75.9164 483.779 76.1031C483.779 84.9961 488.141 85.6999 488.077 86.9475C487.476 92.3304 487.66 97.7718 488.622 103.102C491 97.6666 493.743 92.3976 496.833 87.3314C496.887 87.2316 496.965 87.1471 497.061 87.0856C497.156 87.024 497.265 86.9875 497.379 86.9795C510.658 85.348 512.486 76.9988 513.993 64.2669C512.422 68.8734 511.395 73.8638 505.461 75.2393C505.518 76.8049 505.114 78.3528 504.299 79.6921C503.484 81.0315 502.294 82.1039 500.876 82.7771C499.458 83.4504 497.873 83.6952 496.317 83.4813C494.761 83.2673 493.301 82.6041 492.119 81.5733C487.756 83.2687 484.164 80.5816 484.26 75.4633C483.336 75.1442 482.523 74.5667 481.919 73.7998C476.113 78.8222 477.653 103.262 484.389 88.1951C484.474 88.0567 484.608 87.954 484.764 87.9062C484.92 87.8583 485.088 87.8686 485.237 87.9351C485.386 88.0015 485.505 88.1197 485.573 88.2675C485.642 88.4153 485.654 88.5829 485.607 88.7389C478.84 104.574 473.323 85.54 478.423 75.5272C460.365 73.096 439.196 83.8445 421.619 104.318C428.636 108.968 434.548 115.093 438.939 122.264C445.103 111.709 452.946 102.223 462.161 94.1771C462.235 94.112 462.321 94.062 462.414 94.03C462.507 93.998 462.605 93.9846 462.703 93.9905C462.802 93.9964 462.898 94.0216 462.986 94.0646C463.075 94.1076 463.154 94.1676 463.219 94.2411C463.285 94.3146 463.335 94.4002 463.367 94.4931C463.399 94.5859 463.413 94.6842 463.407 94.7822C463.401 94.8802 463.375 94.9761 463.332 95.0644C463.289 95.1527 463.229 95.2317 463.155 95.2968C436.501 119.961 424.666 156.877 420.015 170.792C419.438 172.551 419.021 173.991 418.7 174.759C442.435 207.004 477.493 221.176 529.004 219.544C532.885 204.029 524.867 192.897 525.797 191.425C536.478 174.343 540.006 157.58 543.213 138.93C534.329 133.332 514.346 118.617 515.693 99.2315C515.726 99.0823 515.81 98.9488 515.929 98.8532C516.049 98.7575 516.198 98.7054 516.351 98.7054C516.504 98.7054 516.653 98.7575 516.772 98.8532C516.892 98.9488 516.975 99.0823 517.008 99.2315C517.008 110.716 523.84 121.624 537.311 132.117C544.963 118.127 557.221 107.201 572.016 101.183C556.364 88.387 533.527 75.8471 516.399 75.5912C518.708 80.9015 515.661 88.3231 512.197 93.2494ZM515.405 59.9483C516.106 60.1297 516.829 60.2158 517.554 60.2043C517.554 59.3405 518.195 57.5171 519.061 57.3892C519.229 57.3572 519.403 57.3776 519.559 57.4476C519.716 57.5177 519.846 57.634 519.934 57.7807C520.022 57.9275 520.062 58.0976 520.049 58.2679C520.036 58.4382 519.971 58.6005 519.863 58.7327C519.62 59.038 519.435 59.3849 519.318 59.7564C524.321 57.5811 524.097 50.1595 518.997 52.1429C518.801 52.2489 518.571 52.2731 518.358 52.2101C518.144 52.1471 517.965 52.0021 517.858 51.807C517.752 51.6119 517.728 51.3826 517.791 51.1696C517.854 50.9567 517.999 50.7774 518.195 50.6714C523.102 47.1205 525.925 31.1258 517.329 32.0535C517.238 32.0669 517.145 32.0616 517.056 32.0379C516.968 32.0142 516.884 31.9726 516.812 31.9156C516.74 31.8587 516.681 31.7876 516.637 31.7068C516.593 31.626 516.567 31.5371 516.559 31.4457C516.559 30.8699 521.306 24.6959 512.903 19.4176C506.231 15.195 506.295 15.131 506.937 12.4439C510.144 -1.11967 494.717 0.447818 495.775 12.4439C496.079 14.9109 496.66 17.336 497.507 19.6735C497.542 19.8618 497.506 20.0565 497.404 20.2192C497.303 20.382 497.144 20.5011 496.96 20.5532C496.775 20.6053 496.577 20.5866 496.405 20.5008C496.234 20.415 496.1 20.2682 496.032 20.0894C495.294 18.074 493.466 10.3006 490.162 8.76509C485.351 6.55782 484.1 16.8265 488.27 20.7932C488.444 20.8992 488.569 21.07 488.617 21.268C488.665 21.466 488.633 21.6749 488.526 21.8488C488.42 22.0227 488.249 22.1474 488.05 22.1954C487.852 22.2434 487.642 22.2108 487.468 22.1047C485.062 21.209 483.362 21.4649 482.689 22.8405C481.598 25.0798 483.202 29.7502 487.307 28.5666C489.745 27.8628 489.905 26.1034 490.515 25.8475C490.678 25.7862 490.858 25.7847 491.023 25.8433C491.187 25.9018 491.325 26.0167 491.413 26.1674C492.952 28.9825 497.635 28.5666 498.341 26.1674C498.41 26.0179 498.521 25.8913 498.661 25.8025C498.8 25.7138 498.962 25.6667 499.127 25.6667C499.292 25.6667 499.454 25.7138 499.593 25.8025C499.732 25.8913 499.843 26.0179 499.913 26.1674C500.419 27.4069 501.324 28.4437 502.485 29.1152C503.646 29.7868 504.997 30.0551 506.328 29.8782C511.139 29.3344 513.929 30.6779 514.506 33.8769C514.534 33.9987 514.535 34.1252 514.507 34.247C514.479 34.3688 514.424 34.4829 514.346 34.5806C510.337 39.667 514.635 48.9439 511.973 55.4378C508.765 64.2349 498.02 57.2612 491.573 57.1653C490.483 57.1653 490.547 55.7577 491.573 55.7257C498.277 55.5338 507.61 62.1236 510.176 54.83C512.678 48.848 508.06 40.0509 512.71 33.8769C511.363 28.7905 503.569 34.7726 499.207 28.2147C498.647 28.7782 497.976 29.2202 497.237 29.5129C496.497 29.8056 495.705 29.9427 494.91 29.9157C494.115 29.8887 493.334 29.698 492.616 29.3558C491.899 29.0135 491.26 28.527 490.739 27.9268C490.129 28.9048 489.234 29.6738 488.173 30.131C487.113 30.5883 485.938 30.7121 484.806 30.486C481.823 37.6836 481.983 48.4321 483.074 56.0776C485.03 54.926 490.419 55.2779 489.841 56.8773C489.765 57.0326 489.637 57.1561 489.478 57.2263C489.32 57.2965 489.142 57.3089 488.975 57.2612C487.339 56.9733 483.138 56.7814 483.458 58.4128C484.453 62.7314 482.336 63.8831 481.887 67.5299C481.566 70.121 481.887 73.352 485.094 73.9278C485.304 73.9595 485.494 74.0698 485.625 74.2362C485.756 74.4026 485.819 74.6126 485.8 74.8235C485.447 79.0781 487.981 81.4773 491.766 79.7179C491.912 79.6336 492.078 79.5893 492.247 79.5893C492.416 79.5893 492.582 79.6336 492.728 79.7179C493.66 80.654 494.86 81.2799 496.162 81.5097C497.465 81.7395 498.807 81.562 500.005 81.0016C501.202 80.4412 502.197 79.5252 502.852 78.3791C503.507 77.233 503.791 75.9129 503.665 74.5995C503.663 74.3994 503.733 74.2052 503.863 74.0524C503.992 73.8996 504.173 73.7986 504.371 73.7678C512.133 72.4242 510.786 63.2113 514.282 60.0443C514.422 59.9254 514.587 59.8404 514.765 59.796C514.943 59.7516 515.129 59.749 515.308 59.7884L515.405 59.9483ZM522.172 59.9483C521.396 60.6788 520.48 61.2447 519.478 61.6118C519.596 61.7924 519.748 61.9481 519.927 62.07C520.105 62.1919 520.306 62.2775 520.517 62.3221C520.729 62.3667 520.947 62.3692 521.159 62.3297C521.372 62.2902 521.574 62.2093 521.755 62.0916C521.936 61.974 522.093 61.822 522.215 61.6442C522.337 61.4664 522.423 61.2663 522.468 61.0554C522.512 60.8445 522.515 60.6269 522.475 60.415C522.435 60.2031 522.354 60.001 522.236 59.8204L522.172 59.9483ZM422.998 128.15C423.041 128.248 423.062 128.354 423.06 128.461C423.057 128.568 423.032 128.673 422.984 128.769C422.937 128.866 422.869 128.95 422.786 129.017C422.702 129.085 422.605 129.133 422.501 129.159C422.397 129.185 422.289 129.188 422.183 129.168C422.078 129.148 421.978 129.105 421.891 129.042C421.804 128.98 421.732 128.899 421.679 128.806C421.627 128.712 421.595 128.609 421.587 128.502C417.93 116.986 406.512 111.132 395.254 106.109C393.939 107.485 379.216 122.488 379.216 122.488C391.02 137.907 408.436 157.676 424.313 152.398C428.088 142.539 432.669 133.006 438.009 123.895C433.206 116.908 427.303 110.74 420.528 105.629C418.187 108.476 415.91 111.451 413.825 114.522C418.226 118.005 421.432 122.768 422.998 128.15ZM353.749 37.6196C333.574 43.1858 305.958 58.6048 303.777 61.004C301.596 63.4032 302.045 65.6105 303.072 72.3603C304.29 80.3257 308.171 106.877 313.56 113.179C361.96 131.893 361.255 133.716 362.762 132.213C396.376 98.9756 397.948 97.568 398.365 96.3204C392.399 90.7862 371.166 85.6359 363.083 83.8445C363.128 70.1748 361.676 56.5411 358.753 43.1858C357.887 39.3151 357.245 36.596 353.749 37.6196ZM536.574 407.419C541.353 406.491 544.175 404.699 545.266 399.933C544.143 398.525 543.053 397.054 542.058 395.55C539.866 398.323 537.394 400.864 534.681 403.132C535.644 404.827 536.221 406.363 536.638 407.419H536.574ZM536.734 409.178C533.366 422.486 534.04 429.683 534.778 429.971C536.125 430.643 538.755 428.884 540.198 427.252C545.14 421.081 548.102 413.567 548.698 405.691C548.699 405.089 548.574 404.494 548.331 403.943C548.088 403.392 547.732 402.898 547.287 402.492C546.389 401.501 547.03 401.628 546.068 403.74C545.193 405.425 543.859 406.829 542.219 407.791C540.579 408.753 538.7 409.234 536.798 409.178H536.734Z" fill="#0867FF"/>
<path d="M362.794 85.8279C368.247 86.9155 382.039 90.2744 385.792 94.4011C386.209 94.8809 387.01 93.8892 379.89 100.799C369.113 111.036 364.943 114.97 352.979 125.655C343.55 121.624 334.857 117.977 322.605 112.187C323.952 111.068 360.838 86.4037 362.794 85.8279ZM352.659 123.544C364.238 112.411 372.128 105.373 383.835 94.753C381.365 93.4734 380.628 91.9059 362.987 87.2354L357.342 91.1701C358.817 91.554 360.549 92.0339 361.672 92.3857C366.226 88.9309 365.681 89.1868 366.354 89.1868C366.996 89.9865 366.739 89.8905 363.339 92.8016C365.553 93.5693 367.766 94.4651 369.754 95.4567L372.481 92.9296C373.218 92.2578 374.149 93.1855 373.443 93.8892C372.737 94.593 371.807 95.5527 371.23 96.1925C372.417 96.7683 373.507 97.3761 374.437 98.0159C374.555 98.1355 374.621 98.2963 374.621 98.4637C374.621 98.6312 374.555 98.792 374.437 98.9116C373.956 99.5194 373.667 98.9116 369.883 97.3761L362.89 104.094C364.013 104.67 364.911 105.15 365.713 105.661C365.791 105.703 365.86 105.76 365.916 105.829C365.972 105.897 366.013 105.976 366.039 106.061C366.064 106.146 366.072 106.234 366.063 106.322C366.054 106.41 366.028 106.495 365.986 106.573C365.944 106.651 365.886 106.719 365.818 106.775C365.749 106.831 365.67 106.873 365.585 106.898C365.5 106.923 365.411 106.931 365.323 106.922C365.235 106.913 365.149 106.887 365.072 106.845L361.672 105.278L353.942 112.539C354.904 113.051 355.738 113.563 356.54 114.043C356.604 114.105 356.655 114.18 356.689 114.262C356.724 114.345 356.742 114.433 356.742 114.522C356.742 114.612 356.724 114.7 356.689 114.783C356.655 114.865 356.604 114.94 356.54 115.002C356.123 115.61 355.802 115.29 352.466 113.787C347.334 118.585 347.366 118.585 346.949 118.585C346.811 118.571 346.68 118.518 346.571 118.432C346.462 118.347 346.379 118.232 346.332 118.102C346.285 117.972 346.276 117.831 346.306 117.696C346.336 117.56 346.403 117.436 346.5 117.338L351.408 113.243C348.714 112.059 346.468 111.1 342.716 109.628L336.557 114.395C336.408 114.509 336.22 114.56 336.034 114.536C335.847 114.512 335.678 114.415 335.563 114.267C335.448 114.118 335.397 113.93 335.421 113.744C335.445 113.558 335.542 113.389 335.691 113.275L340.919 108.924C334.505 106.461 334.505 106.941 334.505 106.173L325.556 111.835C334.408 115.418 346.404 120.696 352.659 123.544ZM335.371 105.533C337.821 106.005 340.225 106.691 342.555 107.581C347.046 103.87 345.314 105.341 351.055 100.735C347.302 99.2635 346.565 99.2955 346.853 98.4957C346.904 98.3488 347.008 98.2256 347.143 98.149C347.279 98.0725 347.438 98.0479 347.591 98.0799C349.259 98.4957 350.798 98.9756 352.53 99.5514L360.164 93.5374L355.866 92.1618C349.612 96.3844 342.234 101.119 335.371 105.533ZM354.423 100.255C356.86 101.183 359.266 102.239 361.607 103.454C363.628 101.599 365.488 99.7753 368.632 96.8643C366.226 95.8406 364.206 95.0729 361.896 94.2091L354.423 100.255ZM344.416 108.253C347.281 109.34 350.071 110.556 352.787 111.899L360.324 104.638C357.759 103.486 355.321 102.462 352.915 101.439L344.416 108.253ZM307.754 62.3796C322.413 54.1814 337.621 46.9988 353.268 40.8826C353.491 40.7943 353.73 40.7508 353.97 40.7545C354.21 40.7582 354.447 40.809 354.667 40.904C354.888 40.9991 355.087 41.1365 355.255 41.3085C355.422 41.4805 355.553 41.6836 355.642 41.9063C357.63 47.0246 361.287 74.7915 361.223 81.9891C361.21 82.4222 361.089 82.8453 360.871 83.2197C360.652 83.5942 360.343 83.908 359.972 84.1324L317.024 109.436C316.833 109.547 316.619 109.614 316.398 109.631C316.177 109.648 315.955 109.616 315.749 109.536C315.543 109.456 315.357 109.331 315.206 109.169C315.054 109.008 314.941 108.815 314.875 108.604C310.384 94.3473 307.564 79.6192 306.471 64.7148C306.434 64.2433 306.536 63.7712 306.764 63.3564C306.992 62.9416 307.336 62.6021 307.754 62.3796ZM350.702 53.7424L326.646 64.9707C326.503 65.0358 326.374 65.1284 326.267 65.2432C326.159 65.3581 326.076 65.4928 326.021 65.6399C325.966 65.7869 325.94 65.9433 325.946 66.1002C325.951 66.2571 325.988 66.4114 326.053 66.5542C326.118 66.697 326.211 66.8256 326.326 66.9327C326.441 67.0397 326.576 67.1231 326.724 67.178C326.871 67.233 327.028 67.2585 327.185 67.253C327.343 67.2475 327.497 67.2111 327.641 67.146L351.729 55.9817C352.026 55.8459 352.258 55.5978 352.372 55.2918C352.486 54.9858 352.474 54.6471 352.338 54.3502C352.202 54.0532 351.953 53.8224 351.646 53.7084C351.34 53.5944 351 53.6066 350.702 53.7424ZM353.428 61.1C353.295 60.8083 353.052 60.5808 352.752 60.467C352.452 60.3532 352.118 60.3622 351.825 60.4922L328.314 71.3046C328.072 71.4664 327.895 71.7096 327.817 71.99C327.739 72.2704 327.764 72.5695 327.889 72.8328C328.013 73.0962 328.228 73.3063 328.494 73.4251C328.761 73.5438 329.061 73.5633 329.341 73.4799L352.819 62.6675C352.963 62.605 353.093 62.5148 353.201 62.402C353.31 62.2892 353.395 62.1561 353.451 62.0104C353.508 61.8646 353.535 61.7092 353.531 61.5529C353.527 61.3966 353.492 61.2427 353.428 61.1ZM354.07 72.2963L332.805 82.533C332.546 82.6419 332.334 82.8391 332.207 83.0893C332.08 83.3395 332.046 83.6265 332.112 83.8992C332.177 84.1719 332.337 84.4126 332.564 84.5783C332.791 84.744 333.069 84.8241 333.35 84.8042C333.767 84.8042 332.484 85.54 355.128 74.4396C355.413 74.2996 355.631 74.0525 355.733 73.7525C355.835 73.4525 355.814 73.1244 355.674 72.8401C355.533 72.5559 355.286 72.3389 354.985 72.237C354.684 72.135 354.355 72.1563 354.07 72.2963ZM332.356 93.2495L356.283 80.4536C356.516 80.278 356.679 80.0247 356.74 79.7397C356.802 79.4547 356.759 79.1571 356.619 78.9012C356.479 78.6452 356.251 78.448 355.978 78.3454C355.704 78.2428 355.403 78.2417 355.128 78.3423L331.201 91.1381C330.968 91.3137 330.805 91.5671 330.744 91.8521C330.682 92.1371 330.725 92.4347 330.865 92.6906C331.005 92.9465 331.232 93.1438 331.506 93.2464C331.78 93.349 332.081 93.3501 332.356 93.2495ZM326.55 81.5733L353.974 68.7775C354.216 68.6157 354.393 68.3725 354.471 68.0921C354.549 67.8117 354.523 67.5126 354.399 67.2493C354.275 66.9859 354.06 66.7758 353.794 66.6571C353.527 66.5383 353.227 66.5188 352.947 66.6022L325.492 79.398C325.236 79.5567 325.048 79.8042 324.964 80.0928C324.881 80.3814 324.907 80.6907 325.039 80.9609C325.17 81.2312 325.398 81.4433 325.677 81.5564C325.956 81.6695 326.267 81.6755 326.55 81.5733ZM318.018 63.8831C318.163 64.1634 318.409 64.3787 318.707 64.4856C319.004 64.5924 319.331 64.5829 319.622 64.4589C352.819 49.5837 350.959 49.7437 351.215 49.0719C351.29 48.8496 351.299 48.6104 351.24 48.3833C351.182 48.1561 351.059 47.9507 350.886 47.7918C350.713 47.6329 350.497 47.5273 350.266 47.4876C350.034 47.448 349.796 47.476 349.58 47.5684C317.537 62.3796 317.281 62.3796 318.018 63.7871V63.8831Z" fill="#0867FF"/>
</svg>
