<svg width="313" height="313" viewBox="0 0 313 313" fill="none" xmlns="http://www.w3.org/2000/svg">
<path d="M103.447 140.443C103.548 140.443 103.648 140.417 103.736 140.368C103.825 140.318 103.899 140.247 103.953 140.161C104.006 140.075 104.036 139.976 104.041 139.875C104.045 139.774 104.024 139.673 103.979 139.582C103.979 139.41 102.993 138.017 102.821 137.783C102.767 137.683 102.675 137.609 102.567 137.577C102.458 137.544 102.341 137.556 102.241 137.61C102.142 137.664 102.068 137.756 102.035 137.864C102.003 137.973 102.015 138.09 102.069 138.189C102.774 139.614 102.821 140.443 103.447 140.443ZM100.536 138.831C100.457 138.38 100.502 137.915 100.668 137.488C100.833 137.06 101.112 136.686 101.475 136.405C101.538 136.348 101.589 136.278 101.624 136.2C101.659 136.122 101.677 136.037 101.677 135.952C101.677 135.866 101.659 135.781 101.624 135.703C101.589 135.625 101.538 135.555 101.475 135.498C100.567 134.543 99.1428 136.828 99.7375 139.019C99.7498 139.071 99.7723 139.121 99.8038 139.164C99.8352 139.208 99.875 139.245 99.9208 139.274C99.9665 139.302 100.017 139.321 100.071 139.33C100.124 139.338 100.178 139.336 100.23 139.324C100.283 139.312 100.332 139.289 100.376 139.258C100.42 139.226 100.457 139.187 100.485 139.141C100.513 139.095 100.533 139.044 100.541 138.991C100.55 138.938 100.548 138.884 100.536 138.831ZM55.9957 46.277C55.4934 46.2766 55.002 46.4235 54.5825 46.6997C54.1629 46.9758 53.8336 47.369 53.6353 47.8305C53.437 48.292 53.3785 48.8016 53.4671 49.296C53.5556 49.7904 53.7873 50.248 54.1334 50.6121C54.3715 50.8832 54.6668 51.0982 54.998 51.2416C55.3292 51.3849 55.6881 51.4531 56.0488 51.4411C56.4095 51.4291 56.763 51.3374 57.084 51.1723C57.405 51.0073 57.6854 50.7732 57.905 50.4869C58.2207 50.1182 58.4246 49.6671 58.4929 49.1867C58.5611 48.7062 58.4909 48.2162 58.2905 47.7742C58.09 47.3322 57.7676 46.9565 57.3611 46.6913C56.9547 46.4262 56.481 46.2824 55.9957 46.277ZM64.165 44.9781C63.6627 44.9776 63.1713 45.1246 62.7518 45.4007C62.3322 45.6769 62.0028 46.0701 61.8046 46.5316C61.6063 46.9931 61.5478 47.5026 61.6364 47.9971C61.7249 48.4915 61.9566 48.9491 62.3027 49.3131C62.5396 49.588 62.8349 49.8066 63.167 49.953C63.4991 50.0994 63.8596 50.1699 64.2224 50.1594C64.5851 50.1489 64.941 50.0577 65.2641 49.8923C65.5871 49.727 65.8693 49.4917 66.09 49.2036C66.4113 48.8343 66.6196 48.3803 66.69 47.8959C66.7604 47.4114 66.6899 46.917 66.487 46.4715C66.2841 46.026 65.9572 45.6483 65.5455 45.3835C65.1338 45.1187 64.6545 44.978 64.165 44.9781ZM72.7569 43.4287C72.2577 43.4352 71.7711 43.5863 71.3559 43.8637C70.9408 44.141 70.615 44.5328 70.418 44.9915C70.2209 45.4502 70.161 45.9562 70.2456 46.4482C70.3302 46.9402 70.5556 47.3972 70.8945 47.7638C71.1315 48.0386 71.4268 48.2572 71.7588 48.4036C72.0909 48.55 72.4515 48.6205 72.8142 48.61C73.177 48.5995 73.5329 48.5083 73.8559 48.343C74.179 48.1776 74.4611 47.9423 74.6818 47.6542C75.0032 47.2849 75.2115 46.831 75.2819 46.3465C75.3523 45.8621 75.2818 45.3676 75.0789 44.9221C74.8759 44.4766 74.5491 44.099 74.1374 43.8342C73.7256 43.5693 73.2464 43.4286 72.7569 43.4287ZM130.975 113.071C130.975 120.583 133.432 122.195 134.715 113.369C143.792 113.369 142.305 110.786 135.013 109.613C135.013 100.629 132.43 101.96 131.257 109.331C123.823 109.362 122.07 111.788 130.975 113.071ZM158.065 97.2647C158.108 97.2945 158.159 97.3093 158.211 97.3065C158.263 97.3038 158.313 97.2839 158.353 97.2498C158.392 97.2157 158.419 97.1694 158.429 97.1183C158.44 97.0671 158.433 97.014 158.409 96.9674C157.848 95.5297 157.629 93.9815 157.768 92.4445C159.212 92.428 160.597 91.8694 161.649 90.8795C163.197 91.5369 164.928 91.6201 166.532 91.1143C166.907 95.2615 166.532 95.6841 166.829 95.8093C166.867 95.8312 166.91 95.8428 166.954 95.8428C166.998 95.8428 167.041 95.8312 167.079 95.8093C167.548 95.4426 167.94 94.9863 168.231 94.4671C168.522 93.9478 168.706 93.3759 168.774 92.7846C168.842 92.1932 168.792 91.5943 168.627 91.0225C168.461 90.4508 168.184 89.9176 167.81 89.454C167.437 88.9904 166.975 88.6057 166.452 88.3221C165.929 88.0386 165.354 87.8619 164.762 87.8023C164.17 87.7427 163.571 87.8015 163.002 87.9751C162.433 88.1487 161.904 88.4338 161.445 88.8137C160.883 88.4622 160.358 88.0531 159.88 87.593C160.185 86.7914 160.535 86.0076 160.929 85.2455C160.951 85.2076 160.965 85.1657 160.971 85.1222C160.977 85.0787 160.974 85.0345 160.962 84.9922C160.95 84.9499 160.93 84.9103 160.903 84.8759C160.876 84.8415 160.842 84.8128 160.804 84.7917C160.459 84.5726 160.272 84.9795 159.974 85.3864C158.988 86.7479 158.409 87.5148 158.879 88.3912C154.074 88.4694 153.573 94.5729 158.065 97.2647ZM165.89 118.377C165.863 118.558 165.875 118.743 165.924 118.92C165.973 119.097 166.059 119.261 166.175 119.403C166.292 119.545 166.437 119.66 166.601 119.743C166.765 119.825 166.944 119.872 167.128 119.881C167.311 119.89 167.494 119.86 167.665 119.794C167.836 119.728 167.992 119.626 168.121 119.496C168.251 119.366 168.352 119.211 168.418 119.039C168.484 118.868 168.513 118.685 168.504 118.502C168.53 118.32 168.519 118.135 168.469 117.958C168.42 117.782 168.335 117.617 168.218 117.475C168.102 117.334 167.957 117.218 167.793 117.136C167.629 117.053 167.449 117.006 167.266 116.997C167.083 116.989 166.899 117.018 166.728 117.085C166.557 117.151 166.402 117.252 166.272 117.382C166.143 117.512 166.042 117.668 165.976 117.839C165.91 118.01 165.881 118.193 165.89 118.377Z" fill="#0867FF"/>
<path d="M125.106 119.519C127.312 121.485 130.175 122.554 133.13 122.513C136.085 122.473 138.918 121.326 141.069 119.3C152.509 125.67 165.78 125.842 178.457 119.3C185.448 116.394 191.017 110.858 193.966 103.885C199.913 88.6729 194.78 67.2637 177.659 59.6265C150.396 47.2474 120.755 72.5221 128.33 101.49C121.037 104.683 118.533 113.807 125.106 119.519ZM160.428 58.0615C191.728 55.2758 202.558 90.4727 190.022 108.345C188.583 107.265 187.004 106.385 185.327 105.731C181.922 104.645 178.35 104.173 174.779 104.339C174.106 103.697 170.82 100.849 170.256 100.363V97.7186C171.814 95.2816 172.529 92.4006 172.291 89.518C177.111 87.953 177.408 81.5365 173.621 81.38C174.103 78.2686 174.103 75.1015 173.621 71.99C172.291 67.4359 166.594 65.4953 165.937 65.2918C158.894 63.0695 150.866 67.0759 149.458 71.677C148.785 73.7898 149.458 80.5036 149.974 82.9294C149.505 83.1168 149.079 83.3993 148.724 83.7591C148.37 84.1189 148.093 84.5482 147.912 85.02C147.732 85.4919 147.65 85.9961 147.674 86.5008C147.697 87.0056 147.825 87.5 148.049 87.953C148.503 89.0016 149.849 92.1003 151.961 91.6777C152.038 93.9624 152.856 96.16 154.293 97.9377C154.121 101.475 154.434 100.144 153.73 100.129C153.641 100.134 153.554 100.161 153.478 100.207C153.401 100.254 153.338 100.318 153.292 100.395C152.572 101.647 150.569 105.919 150.162 107.077C149.207 107.5 145.576 109.362 144.543 109.863C143.511 103.024 135.607 98.7828 129.253 101.193C124.699 78.25 139.395 59.9552 160.428 58.0615ZM175.593 119.097C170.118 121.664 164.108 122.888 158.065 122.665C158.065 118.251 154.638 118.189 152.994 114.151C152.634 113.243 150.976 109.362 150.475 108.11C150.71 107.641 151.163 106.936 151.555 106.295C152.165 110.739 157.815 115.685 157.815 115.685C158.926 116.577 159.708 116.452 160.381 115.012L162.823 109.769C163.692 111.742 164.717 113.641 165.89 115.45C165.951 115.551 166.044 115.628 166.154 115.67C166.264 115.712 166.385 115.716 166.498 115.682C166.611 115.648 166.709 115.578 166.777 115.482C166.846 115.386 166.88 115.27 166.876 115.153C166.876 114.057 167.361 110.27 167.565 108.768C168.473 110.212 169.522 111.565 170.695 112.805C170.765 112.853 170.845 112.884 170.929 112.896C171.013 112.907 171.099 112.899 171.18 112.872C171.26 112.844 171.333 112.799 171.393 112.738C171.453 112.678 171.498 112.604 171.524 112.524C171.978 111.35 174.654 105.982 175.014 105.34L175.906 105.45C174.826 109.253 175.483 115.967 175.593 119.097ZM152.118 90.2536C151.476 90.9109 150.913 90.5196 150.443 89.7215C149.457 88.3286 148.425 86.5915 149.191 84.9013C149.341 84.584 149.574 84.3139 149.867 84.1206C150.16 83.9274 150.5 83.8184 150.85 83.8058C151.337 84.0078 151.775 84.312 152.134 84.6978C152.595 85.179 152.933 85.7641 153.12 86.4037C153.133 86.4538 153.162 86.498 153.203 86.5296C153.244 86.5612 153.295 86.5783 153.347 86.5783C153.398 86.5783 153.449 86.5612 153.49 86.5296C153.531 86.498 153.56 86.4538 153.573 86.4037C153.573 84.6978 153.73 79.0325 153.761 77.0137C156.178 78.2376 158.88 78.7862 161.582 78.6017C164.284 78.4171 166.886 77.5062 169.114 75.9651C169.302 77.7179 169.928 83.2893 170.241 85.2299C170.258 85.2742 170.288 85.3123 170.327 85.3392C170.366 85.366 170.412 85.3804 170.46 85.3804C170.507 85.3804 170.554 85.366 170.593 85.3392C170.632 85.3123 170.662 85.2742 170.679 85.2299C171.108 84.3607 171.703 83.5843 172.432 82.945C172.613 82.7641 172.838 82.6341 173.086 82.5682C173.333 82.5023 173.593 82.5027 173.84 82.5694C176.156 83.1328 175.061 87.7965 171.602 88.5477C171.478 88.5816 171.368 88.6548 171.289 88.7564C171.21 88.858 171.166 88.9825 171.164 89.1111C171.274 91.709 170.898 97.7656 165.874 99.4245C163.924 100.192 161.791 100.371 159.74 99.9409C157.712 99.47 155.923 98.283 154.701 96.598C153.479 94.913 152.906 92.8435 153.088 90.77C153.107 90.647 153.087 90.5212 153.03 90.4104C152.973 90.2996 152.883 90.2093 152.773 90.1523C152.662 90.0953 152.537 90.0744 152.413 90.0926C152.29 90.1107 152.176 90.167 152.087 90.2536H152.118ZM159.786 105.904C158.192 104.585 156.696 103.152 155.311 101.615V98.955C159.223 102.586 165.859 101.897 169.396 98.8298C169.342 99.5725 169.416 100.319 169.615 101.036L171.18 102.601C166.97 106.623 166.892 106.561 166.876 107.187C166.473 109.218 166.19 111.272 166.031 113.337C165.78 112.837 163.558 108.345 163.433 108.142C163.136 107.422 161.571 107.203 159.755 105.904H159.786ZM162.494 108.423C161.273 110.254 159.536 114.182 158.91 114.84C155.608 112.257 152.321 108.768 152.494 104.589C152.588 104.339 153.354 102.633 153.871 101.553C157.329 105.622 158.409 106.702 162.463 108.423H162.494ZM167.893 107.046C168.347 106.608 172.025 103.29 172.025 103.29C172.291 103.493 173.715 104.636 173.997 104.855C173.117 107.09 172.07 109.256 170.867 111.334C169.631 110.084 168.616 108.634 167.862 107.046H167.893ZM133.166 101.631C135.615 101.618 137.991 102.469 139.874 104.035C141.758 105.601 143.029 107.781 143.464 110.192C143.57 112.284 143.048 114.361 141.967 116.155C140.885 117.949 139.292 119.38 137.391 120.262C135.491 121.145 133.371 121.44 131.302 121.11C129.233 120.779 127.31 119.839 125.779 118.408C118.721 111.819 124.198 101.631 133.166 101.631Z" fill="#0867FF"/>
<path d="M157.063 82.945C157.063 83.7901 156.907 85.0734 156.938 85.2455C156.961 85.3887 157.035 85.5189 157.145 85.6129C157.255 85.7068 157.396 85.7585 157.541 85.7585C157.686 85.7585 157.826 85.7068 157.936 85.6129C158.047 85.5189 158.12 85.3887 158.143 85.2455C158.143 85.0577 157.971 83.1484 157.971 82.9606C157.973 82.8403 157.927 82.724 157.844 82.6374C157.76 82.5508 157.645 82.501 157.525 82.4989C157.405 82.4969 157.288 82.5427 157.202 82.6263C157.115 82.71 157.065 82.8246 157.063 82.945ZM165.577 84.6978C165.577 84.463 165.405 82.6163 165.405 82.4129C165.385 82.3089 165.33 82.215 165.249 82.1475C165.167 82.0799 165.065 82.0429 164.959 82.0429C164.853 82.0429 164.751 82.0799 164.669 82.1475C164.588 82.215 164.532 82.3089 164.513 82.4129C164.419 83.6023 164.356 84.5569 164.372 84.7447C164.4 84.8875 164.478 85.0155 164.592 85.1057C164.707 85.1959 164.849 85.2423 164.995 85.2367C165.14 85.231 165.278 85.1736 165.385 85.0748C165.492 84.976 165.56 84.8423 165.577 84.6978ZM155.624 82.945C155.671 82.9564 155.72 82.9582 155.768 82.9501C155.816 82.942 155.862 82.9243 155.903 82.8979C155.944 82.8716 155.979 82.8372 156.006 82.7969C156.034 82.7565 156.053 82.7111 156.062 82.6633C156.125 82.3367 156.298 82.0414 156.551 81.8254C156.803 81.6094 157.122 81.4855 157.455 81.4739C157.571 81.4324 157.669 81.3518 157.733 81.2458C157.796 81.1398 157.821 81.015 157.802 80.8929C157.784 80.7708 157.723 80.6589 157.631 80.5764C157.539 80.494 157.422 80.4461 157.298 80.441C157.096 80.4197 156.891 80.4407 156.697 80.5027C156.503 80.5647 156.324 80.6662 156.171 80.8009C155.639 81.38 154.935 82.945 155.624 82.945ZM165.452 80.5349C165.842 80.5635 166.214 80.7065 166.523 80.9459C166.832 81.1853 167.064 81.5105 167.189 81.8808C167.223 81.9587 167.284 82.022 167.36 82.0595C167.436 82.097 167.523 82.1062 167.606 82.0856C167.688 82.065 167.761 82.0158 167.811 81.9468C167.86 81.8778 167.884 81.7934 167.878 81.7086C167.782 81.1453 167.507 80.6283 167.091 80.2358C166.676 79.8433 166.145 79.5967 165.577 79.5333C165.014 79.4237 164.888 80.4566 165.452 80.5349ZM164.184 93.2583C164.02 93.5503 163.774 93.7876 163.476 93.9407C163.179 94.0937 162.842 94.1558 162.51 94.1191C162.086 94.1073 161.669 94.0097 161.285 93.8322C160.9 93.6546 160.555 93.4008 160.272 93.0862C160.25 93.0315 160.213 92.9838 160.166 92.948C160.12 92.9122 160.064 92.8897 160.006 92.8827C158.785 92.7888 160.679 95.2772 162.588 95.2772C163.077 95.2497 163.554 95.1115 163.983 94.8729C164.411 94.6343 164.779 94.3017 165.061 93.9C165.483 93.3835 164.528 92.6323 164.184 93.2583ZM210.195 137.329C204.217 135.983 167.455 138.628 123.447 139.77C117.062 139.927 111.991 144.215 112.821 150.162C113.447 154.669 116.937 155.905 121.366 156.203C123.838 156.375 200.696 153.965 204.186 153.933C207.14 154.138 210.08 153.356 212.543 151.711C217.864 147.705 217.144 138.941 210.195 137.329ZM114.902 145.983C115.998 143.714 118.142 142.274 121.46 141.57C123.964 141.038 199.71 138.346 204.89 138.299C208.301 138.299 211.572 138.221 213.638 140.96C216.439 144.653 214.405 151.915 206.361 152.494C203.966 152.681 121.851 154.763 121.851 154.763C120.186 154.759 118.538 154.429 116.999 153.793C114.026 152.368 113.619 148.675 114.902 145.983Z" fill="#0867FF"/>
<path d="M192.182 146.75C193.121 146.75 192.448 146.641 196.392 146.75H200.962C201.065 146.75 201.165 146.709 201.238 146.636C201.312 146.562 201.353 146.463 201.353 146.359C201.353 146.255 201.312 146.156 201.238 146.082C201.165 146.009 201.065 145.968 200.962 145.968C198.082 146.093 195.171 145.357 192.229 145.529C191.353 145.451 191.337 146.75 192.182 146.75ZM167.533 147.58C169.317 147.705 184.514 146.797 186.751 146.641C186.844 146.622 186.927 146.572 186.987 146.5C187.046 146.427 187.079 146.336 187.079 146.242C187.079 146.147 187.046 146.056 186.987 145.983C186.927 145.911 186.844 145.861 186.751 145.842C185.562 145.842 168.566 146.281 167.565 146.39C167.486 146.388 167.409 146.401 167.336 146.429C167.263 146.457 167.196 146.5 167.139 146.553C167.083 146.607 167.037 146.671 167.005 146.743C166.974 146.814 166.956 146.891 166.954 146.969C166.952 147.047 166.965 147.125 166.993 147.198C167.021 147.271 167.064 147.338 167.117 147.394C167.171 147.451 167.235 147.497 167.307 147.528C167.378 147.56 167.455 147.578 167.533 147.58ZM155.702 147.767C156.782 147.767 159.88 147.314 161.367 147.235C161.467 147.216 161.558 147.163 161.622 147.084C161.687 147.006 161.723 146.907 161.723 146.805C161.723 146.703 161.687 146.604 161.622 146.526C161.558 146.447 161.467 146.394 161.367 146.375H155.733C155.642 146.372 155.551 146.388 155.465 146.422C155.38 146.455 155.302 146.504 155.236 146.567C155.103 146.695 155.025 146.871 155.021 147.055C155.017 147.24 155.086 147.419 155.214 147.552C155.342 147.686 155.517 147.763 155.702 147.767ZM123.165 149.051C125.701 149.145 138.69 148.346 141.852 148.159C148.925 147.736 148.581 147.877 148.738 147.58C148.775 147.514 148.796 147.441 148.797 147.365C148.797 147.29 148.779 147.216 148.743 147.15C148.707 147.084 148.654 147.028 148.59 146.988C148.526 146.948 148.453 146.926 148.378 146.922C144.966 146.922 125.012 147.72 123.165 147.83C123.004 147.83 122.848 147.894 122.734 148.009C122.619 148.123 122.555 148.278 122.555 148.44C122.555 148.602 122.619 148.757 122.734 148.872C122.848 148.986 123.004 149.051 123.165 149.051ZM136.155 174.732C136.604 174.528 137.021 174.259 137.391 173.934C137.391 174.466 137.251 174.998 137.188 175.499C137.094 176.376 138.487 176.423 138.549 175.499V174.028C139.138 174.547 139.79 174.989 140.49 175.343C140.625 175.376 140.767 175.365 140.896 175.313C141.024 175.26 141.133 175.168 141.206 175.05C141.279 174.931 141.313 174.793 141.302 174.655C141.292 174.516 141.237 174.384 141.147 174.278C140.43 173.664 139.672 173.1 138.878 172.588C139.082 172.416 140.271 171.383 140.678 171.023C140.754 170.948 140.801 170.848 140.808 170.741C140.815 170.634 140.783 170.528 140.717 170.443C140.652 170.358 140.557 170.3 140.452 170.28C140.347 170.26 140.238 170.28 140.146 170.335C139.661 170.695 139.191 171.023 138.581 171.368C138.581 170.695 138.581 169.943 138.706 169.192C138.687 169.096 138.636 169.009 138.56 168.947C138.484 168.885 138.389 168.851 138.291 168.851C138.193 168.851 138.098 168.885 138.023 168.947C137.947 169.009 137.895 169.096 137.876 169.192C137.876 170.022 137.689 170.851 137.579 171.665L136.014 170.742C135.917 170.686 135.801 170.671 135.692 170.7C135.584 170.729 135.491 170.801 135.435 170.898C135.379 170.996 135.364 171.111 135.393 171.22C135.423 171.329 135.494 171.421 135.592 171.477C136.063 171.79 136.513 172.135 136.937 172.51C136.366 172.842 135.84 173.247 135.372 173.715C135.238 173.819 135.149 173.972 135.127 174.141C135.105 174.309 135.151 174.48 135.255 174.615C135.359 174.75 135.512 174.838 135.681 174.86C135.85 174.882 136.02 174.836 136.155 174.732ZM146.03 174.779C146.484 174.576 146.906 174.307 147.282 173.981C147.282 174.513 147.141 175.045 147.079 175.546C146.969 176.423 148.378 176.469 148.425 175.546V174.075C149.022 174.589 149.679 175.031 150.381 175.39C151.007 175.609 151.429 174.811 151.038 174.325C150.316 173.71 149.553 173.146 148.753 172.635L150.553 171.07C150.629 170.995 150.676 170.894 150.683 170.788C150.69 170.681 150.658 170.575 150.593 170.49C150.527 170.405 150.433 170.347 150.327 170.327C150.222 170.307 150.113 170.327 150.021 170.382C149.551 170.742 149.066 171.07 148.456 171.415C148.456 170.742 148.456 169.99 148.581 169.239C148.706 168.488 147.814 168.66 147.752 169.239C147.752 170.069 147.564 170.898 147.454 171.712L145.889 170.789C145.792 170.732 145.676 170.718 145.567 170.747C145.459 170.776 145.366 170.847 145.31 170.945C145.254 171.043 145.239 171.158 145.269 171.267C145.298 171.376 145.369 171.468 145.467 171.524C145.941 171.841 146.396 172.186 146.828 172.557C146.256 172.889 145.73 173.294 145.263 173.762C145.15 173.871 145.081 174.017 145.069 174.173C145.057 174.33 145.102 174.485 145.196 174.61C145.291 174.735 145.428 174.822 145.581 174.853C145.735 174.884 145.894 174.858 146.03 174.779ZM155.185 174.826C155.638 174.619 156.059 174.351 156.437 174.028C156.437 174.56 156.281 175.092 156.234 175.593C156.124 176.469 157.517 176.516 157.58 175.593V174.122C158.171 174.637 158.823 175.079 159.52 175.437C159.655 175.47 159.797 175.459 159.926 175.407C160.055 175.354 160.163 175.262 160.236 175.144C160.309 175.025 160.343 174.887 160.332 174.748C160.322 174.61 160.268 174.478 160.178 174.372C159.46 173.758 158.702 173.194 157.909 172.682C158.112 172.51 159.301 171.477 159.708 171.117C160.115 170.757 159.599 170.116 159.176 170.429C158.754 170.742 158.159 171.148 157.611 171.477C157.611 170.789 157.611 170.037 157.736 169.286C157.862 168.535 156.97 168.723 156.907 169.286C156.907 170.116 156.719 170.945 156.61 171.759L155.045 170.835C154.947 170.779 154.831 170.764 154.723 170.794C154.614 170.823 154.522 170.894 154.465 170.992C154.409 171.09 154.394 171.205 154.424 171.314C154.453 171.423 154.524 171.515 154.622 171.571C155.094 171.884 155.543 172.229 155.968 172.604C155.4 172.941 154.874 173.346 154.403 173.809C154.268 173.913 154.18 174.066 154.158 174.235C154.136 174.403 154.182 174.574 154.286 174.709C154.389 174.844 154.542 174.932 154.711 174.954C154.88 174.976 155.051 174.93 155.185 174.826ZM165.233 174.732C165.687 174.529 166.109 174.26 166.485 173.934C166.485 174.466 166.344 174.998 166.281 175.499C166.172 176.376 167.565 176.423 167.627 175.499V174.028C168.225 174.542 168.881 174.984 169.583 175.343C170.209 175.562 170.632 174.764 170.225 174.278C169.514 173.657 168.755 173.092 167.956 172.588L169.756 171.023C169.832 170.948 169.878 170.848 169.886 170.741C169.893 170.634 169.861 170.528 169.795 170.443C169.73 170.358 169.635 170.3 169.53 170.28C169.424 170.26 169.315 170.28 169.223 170.335C168.723 170.71 168.201 171.055 167.658 171.368C167.658 170.695 167.658 169.943 167.784 169.192C167.909 168.441 167.017 168.613 166.954 169.192C166.876 170.022 166.766 170.882 166.657 171.665L165.092 170.742C164.994 170.686 164.878 170.671 164.77 170.7C164.661 170.729 164.569 170.801 164.513 170.898C164.457 170.996 164.442 171.111 164.471 171.22C164.5 171.329 164.572 171.421 164.669 171.477C165.141 171.79 165.591 172.135 166.015 172.51C165.445 172.844 164.919 173.249 164.45 173.715C164.315 173.819 164.227 173.972 164.205 174.141C164.183 174.309 164.229 174.48 164.333 174.615C164.437 174.75 164.59 174.838 164.758 174.86C164.927 174.882 165.098 174.836 165.233 174.732ZM174.388 175.124C174.84 174.917 175.262 174.648 175.64 174.325C175.64 174.858 175.483 175.39 175.436 175.89C175.327 176.751 176.72 176.814 176.782 175.89V174.435C177.377 174.945 178.028 175.386 178.723 175.75C178.858 175.783 179 175.772 179.129 175.72C179.257 175.667 179.366 175.575 179.439 175.457C179.512 175.338 179.546 175.2 179.535 175.061C179.524 174.923 179.47 174.791 179.38 174.685C178.665 174.064 177.907 173.494 177.111 172.98L178.911 171.415C179.318 171.07 178.817 170.397 178.379 170.726C177.941 171.055 177.424 171.399 176.814 171.759C176.814 171.086 176.814 170.335 176.939 169.568C176.92 169.472 176.868 169.385 176.793 169.323C176.717 169.26 176.622 169.226 176.524 169.226C176.426 169.226 176.331 169.26 176.256 169.323C176.18 169.385 176.128 169.472 176.109 169.568C176.109 170.397 175.922 171.227 175.812 172.041L174.247 171.117C174.153 171.08 174.05 171.078 173.955 171.111C173.859 171.144 173.779 171.21 173.728 171.297C173.677 171.383 173.659 171.486 173.677 171.585C173.694 171.684 173.747 171.773 173.825 171.837C174.296 172.156 174.746 172.506 175.17 172.886C174.6 173.214 174.074 173.613 173.605 174.075C173.537 174.126 173.479 174.191 173.435 174.265C173.391 174.338 173.362 174.42 173.349 174.505C173.337 174.59 173.341 174.677 173.363 174.76C173.384 174.843 173.421 174.922 173.472 174.991C173.524 175.059 173.588 175.117 173.662 175.161C173.736 175.205 173.818 175.234 173.903 175.247C173.988 175.259 174.074 175.255 174.158 175.233C174.241 175.212 174.319 175.175 174.388 175.124ZM183.872 174.732C184.324 174.526 184.746 174.257 185.124 173.934C185.046 174.466 184.967 174.998 184.92 175.499C184.811 176.376 186.204 176.423 186.266 175.499V174.028C186.857 174.543 187.509 174.985 188.207 175.343C188.342 175.376 188.484 175.365 188.612 175.313C188.741 175.26 188.85 175.168 188.923 175.05C188.996 174.931 189.029 174.793 189.019 174.655C189.008 174.516 188.954 174.384 188.864 174.278C188.151 173.659 187.392 173.094 186.595 172.588C186.798 172.416 187.988 171.383 188.395 171.023C188.471 170.948 188.517 170.848 188.525 170.741C188.532 170.634 188.5 170.528 188.434 170.443C188.369 170.358 188.274 170.3 188.169 170.28C188.064 170.26 187.955 170.28 187.863 170.335C187.393 170.695 186.908 171.023 186.298 171.368C186.298 170.71 186.298 169.959 186.423 169.192C186.548 168.425 185.656 168.613 185.593 169.192C185.593 170.006 185.406 170.757 185.296 171.665L183.731 170.742C183.633 170.686 183.518 170.671 183.409 170.7C183.3 170.729 183.208 170.801 183.152 170.898C183.096 170.996 183.081 171.111 183.11 171.22C183.14 171.329 183.211 171.421 183.308 171.477C183.78 171.79 184.23 172.135 184.654 172.51C184.084 172.844 183.558 173.249 183.089 173.715C182.954 173.819 182.866 173.972 182.844 174.141C182.822 174.309 182.868 174.48 182.972 174.615C183.076 174.75 183.229 174.838 183.398 174.86C183.566 174.882 183.737 174.836 183.872 174.732ZM235.924 204.013C235.962 203.932 235.967 203.84 235.938 203.755C235.908 203.67 235.847 203.6 235.767 203.56C235.454 203.403 235.313 203.747 235.188 203.967C231.307 211.056 227.05 221.072 225.689 228.521C224.249 237.489 225.516 232.481 221.933 247.301C221.921 247.347 221.92 247.395 221.929 247.441C221.938 247.488 221.958 247.531 221.986 247.569C222.015 247.607 222.052 247.637 222.094 247.659C222.136 247.68 222.183 247.692 222.23 247.693C222.527 247.693 222.574 247.567 223.498 244.469C229.257 225.141 223.576 231.777 235.924 204.013ZM198.755 253.906C195.234 256.644 193.168 260.995 192.26 267.631C192.252 267.676 192.253 267.722 192.262 267.767C192.272 267.812 192.291 267.855 192.317 267.893C192.343 267.93 192.376 267.963 192.415 267.987C192.454 268.012 192.497 268.029 192.542 268.038C192.587 268.046 192.634 268.045 192.678 268.035C192.723 268.026 192.766 268.007 192.804 267.981C192.842 267.955 192.874 267.922 192.899 267.883C192.924 267.844 192.941 267.801 192.949 267.756C194.201 259.821 199.209 252.106 207.394 252.638C207.485 252.65 207.578 252.626 207.651 252.57C207.724 252.515 207.773 252.432 207.785 252.341C207.798 252.249 207.773 252.157 207.717 252.083C207.662 252.01 207.579 251.962 207.488 251.949C205.981 251.558 204.404 251.532 202.885 251.872C201.366 252.212 199.951 252.909 198.755 253.906Z" fill="#0867FF"/>
<path d="M261.245 7.68413C260.534 7.58576 259.813 7.58576 259.101 7.68413C57.0129 41.0969 56.9503 40.2205 53.3039 41.7072C46.6683 44.4303 47.9516 53.0535 47.889 59.47C47.889 64.8066 46.4648 209.178 46.4648 209.178C46.4648 214.327 46.3396 220.743 51.7076 223.263C55.2601 224.984 63.6955 225.016 79.3298 225.501C82.1155 246.55 86.9827 242.09 82.1625 282.467C81.7086 286.364 82.3972 287.162 85.6837 288.57C85.8828 290.18 86.1649 291.779 86.5288 293.359C86.1652 294.489 86.0893 295.692 86.3079 296.859C86.5265 298.026 87.0328 299.12 87.7808 300.042C88.266 300.605 101.866 297.131 103.243 296.646C103.287 296.633 103.326 296.606 103.354 296.569C103.382 296.533 103.398 296.488 103.4 296.442C103.65 293.954 101.334 294.204 98.9549 293.813C97.7974 293.596 96.672 293.233 95.6058 292.733V289.885C96.4461 289.857 97.2541 289.555 97.9064 289.024C98.6889 288.257 100.348 280.933 100.614 279.634C102.645 270 103.958 260.228 104.542 250.4C108.095 254.688 108.533 256.77 109.847 262.92C112.336 274.736 112.054 271.809 113.948 291.747C113.998 292.323 114.25 292.861 114.66 293.268C115.069 293.675 115.61 293.924 116.186 293.97C116.358 294.643 116.952 298.086 117.109 298.665C116.66 300.968 117.102 303.357 118.345 305.347C118.784 305.864 132.524 302.421 133.823 301.951C134.167 301.826 133.98 300.793 133.729 300.386C132.775 298.821 130.271 299.901 126.342 298.132C126.142 296.527 126.269 294.898 126.718 293.344C129.206 292.577 129.848 291.779 130.38 289.181C135.075 268.257 136.859 258.507 125.325 229.241C136.468 229.992 188.395 233.138 193.919 233.31C194.193 234.163 194.417 235.03 194.592 235.908C196.016 242.246 197.503 243.013 200.774 244.359C204.526 245.846 207.819 248.297 210.32 251.464C207.707 250.369 207.19 247.473 200.21 247.16C198.27 247.067 197.08 248.506 194.983 250.29C191.963 252.794 191.384 253.42 190.038 256.457C186.407 264.673 185.766 272.952 188.645 279.932C189.741 283.312 192.119 284.016 194.17 280.98C195.86 278.476 195.39 275.503 196.705 272.952C198.979 268.647 201.821 264.668 205.156 261.12C207.347 258.397 207.582 253.295 211.557 253.014C214.571 257.361 216.977 262.1 218.709 267.099V268.194C216.659 268.194 202.339 268.335 201.995 268.476C201.118 268.836 201.353 269.759 201.415 271.277C201.603 275.471 201.134 274.877 204.921 275.127C205.171 277.474 206.283 285.659 206.705 287.788C207.503 291.888 208.661 296.521 212.715 298.477C216.768 300.433 222.105 301.247 226.268 299.338C232.966 296.208 233.748 287.725 235.032 276.989C235.345 274.407 235.266 274.673 235.423 274.673C237.489 274.783 238.929 274.673 239.179 274.078C239.248 272.33 239.201 270.578 239.038 268.836C239.034 268.685 238.971 268.542 238.863 268.436C238.755 268.331 238.61 268.272 238.459 268.272C235.407 268.272 223.216 268.163 220.164 268.178C220.164 267.537 220.289 265.502 220.462 264.407C221.339 263.631 222.363 263.038 223.473 262.665C224.583 262.291 225.757 262.144 226.925 262.231C231.244 262.372 234.327 264.626 238.365 266.081C241.146 266.785 243.59 268.448 245.267 270.776C246.278 272.21 247.627 273.371 249.195 274.157C249.767 274.393 250.395 274.461 251.005 274.353C251.615 274.245 252.182 273.965 252.638 273.546C253.06 273.004 253.304 272.344 253.335 271.657C253.366 270.97 253.182 270.29 252.81 269.712C251.472 267.186 249.988 264.741 248.365 262.388C244.25 256.128 241.652 254.829 236.346 252.841C235.627 252.53 234.884 252.279 234.124 252.09C231.964 251.668 226.299 253.06 223.169 256.05C228.678 247.098 234.515 249.32 237.692 244.14C238.85 242.105 238.13 241.777 240.306 236.831C242.059 236.972 252.294 237.708 254.062 237.708C261.731 237.708 266.316 233.952 266.582 226.518V13.5059C266.606 12.0371 266.066 10.6151 265.073 9.53225C264.081 8.44938 262.711 7.78801 261.245 7.68413ZM206.126 256.989C203.309 263.624 202.339 260.807 195.844 272.279C194.436 274.751 194.858 277.725 193.512 280.104C193.326 280.5 193.06 280.855 192.732 281.146C192.404 281.436 192.019 281.657 191.603 281.794C190.398 281.966 189.662 279.54 189.271 278.351C187.288 272.116 187.599 265.378 190.147 259.352C192.041 254.375 192.182 254.14 195.046 251.746C198.505 248.882 198.536 248.099 200.946 248.397C207.018 249.023 206.94 251.355 209.851 252.372C208.06 253.373 206.726 255.027 206.126 256.989ZM65.4952 223.905C57.3103 223.545 54.0707 223.247 51.7545 221.933C50.7924 221.361 49.9673 220.586 49.3372 219.661C48.7072 218.736 48.2876 217.685 48.1081 216.58C47.1378 211.885 48.1081 208.755 49.1723 56.1209C55.2914 55.3227 59.6891 54.2585 65.73 53.21C65.5735 76.1216 65.3231 214.64 65.4952 223.905ZM70.8475 224.092L66.7159 223.951C66.8411 218.271 66.8568 138.127 66.8568 136.578H70.8632C70.8632 160.053 70.691 216.627 70.8475 224.092ZM70.9415 98.595H66.8411C66.8411 97.8751 66.8411 63.3042 66.7316 53.21L71.1605 52.8187C70.9884 68.4374 70.9727 84.51 70.9415 98.595ZM94.4164 292.655C92.1874 293.174 89.869 293.174 87.64 292.655C87.2765 291.466 87.0302 290.245 86.9044 289.009C89.4197 289.86 92.0832 290.185 94.7294 289.963C94.5729 290.777 94.4477 292.17 94.4008 292.655H94.4164ZM125.09 297.976C122.841 298.5 120.501 298.5 118.251 297.976C117.937 296.739 117.697 295.485 117.531 294.22C120.207 294.498 122.909 294.329 125.529 293.719C125.214 295.116 125.061 296.544 125.075 297.976H125.09ZM126.875 236.706C134.105 256.394 134.371 267.49 128.925 289.916C128.612 291.215 128.33 291.356 128.095 291.481C124.33 293.095 120.153 293.483 116.154 292.592C115.907 292.551 115.683 292.423 115.522 292.23C115.361 292.038 115.275 291.794 115.278 291.544C114.214 276.676 113.932 275.033 110.223 258.961C109.112 252.528 105.638 249.743 101.913 245.126C97.7172 239.865 94.2289 234.078 91.5368 227.911C91.349 227.488 90.6761 227.739 90.8639 228.161C93.867 235.842 98.1476 242.958 103.525 249.211C102.601 261.026 102.163 270.135 97.7499 286.771C97.4525 288.523 96.3727 288.664 94.5103 288.774C91.4507 289.052 88.3722 288.511 85.5898 287.209C83.0232 286.176 83.1954 285.018 83.4771 282.514C86.4193 256.003 86.7636 253.921 82.898 236.784C80.9731 228.177 78.9699 219.303 81.2391 210.743C91.6151 216.549 105.763 217.958 115.669 210.179C119.843 218.828 123.578 227.681 126.859 236.706H126.875ZM79.4237 191.775C77.2855 190.348 75.7092 188.222 74.9642 185.762C74.2192 183.301 74.3517 180.658 75.3391 178.285C76.6787 179.167 78.0864 179.942 79.5489 180.601C79.5793 180.616 79.6128 180.624 79.6467 180.624C79.6807 180.624 79.7141 180.616 79.7445 180.601C79.7748 180.586 79.8012 180.564 79.8216 180.536C79.842 180.509 79.8558 180.478 79.8619 180.444C80.5505 177.44 83.7588 168.738 86.5288 166.219C87.1861 165.499 87.7339 165.405 87.9686 165.624C89.1737 166.719 84.8386 168.441 83.2736 175.749C83.0702 176.454 79.7054 190.429 79.4237 191.775ZM94.6355 146.061C94.1273 146.312 93.554 146.401 92.9938 146.314C92.4337 146.227 91.9139 145.969 91.5055 145.576C91.1139 145.191 90.8638 144.684 90.7956 144.139C90.7274 143.594 90.8452 143.042 91.1299 142.571C91.9437 141.539 94.9955 141.492 96.7952 144.215C96.8243 144.248 96.8607 144.273 96.9015 144.29C96.9422 144.306 96.9863 144.312 97.03 144.309C98.3446 144.09 98.9706 142.869 98.7045 142.634C97.7657 141.882 97.0635 140.875 96.6818 139.735C96.3001 138.594 96.2551 137.367 96.5523 136.202C96.8495 135.036 97.4762 133.981 98.3575 133.162C99.2388 132.343 100.337 131.796 101.522 131.585C106.217 138.565 105.95 140.083 107.782 140.693C108.674 140.991 108.345 141.413 107.672 143.151C106.107 143.151 101.835 143.432 101.287 144.324C100.489 145.592 101.13 148.112 103.572 150.13C103.61 150.161 103.656 150.179 103.705 150.181C103.753 150.184 103.801 150.172 103.843 150.146C103.884 150.12 103.916 150.082 103.935 150.038C103.954 149.993 103.958 149.943 103.947 149.896C103.655 148.648 103.498 147.374 103.478 146.093C104.495 145.874 106.357 145.655 107.39 145.529C107.447 146.185 107.447 146.845 107.39 147.501C106.201 147.908 105.966 147.407 105.825 147.094C105.773 147.016 105.694 146.958 105.603 146.931C105.513 146.904 105.415 146.91 105.328 146.947C105.241 146.984 105.169 147.05 105.126 147.134C105.082 147.218 105.07 147.315 105.09 147.407C105.198 147.845 105.456 148.232 105.819 148.5C106.182 148.769 106.627 148.903 107.077 148.878C106.436 150.631 104.996 151.664 103.024 153.573C102.146 152.968 101.079 152.701 100.019 152.822C97.5279 153.54 95.1035 154.472 92.7732 155.608C92.4602 154.778 91.396 152.024 91.2082 151.195C93.0449 150.136 94.4184 148.427 95.0581 146.406C95.1038 146.35 95.1253 146.278 95.1179 146.206C95.1106 146.134 95.075 146.068 95.019 146.022C94.9629 145.977 94.8911 145.955 94.8192 145.962C94.7472 145.97 94.6812 146.005 94.6355 146.061ZM217.691 219.1C217.419 217.283 216.892 215.512 216.126 213.842C213.231 207.049 209.866 206.017 202.245 203.544C194.968 201.149 196.298 199.553 188.708 198.755C185.124 198.395 181.305 197.972 177.831 199.115V193.747C177.826 193.228 177.711 192.716 177.495 192.244C177.279 191.773 176.966 191.352 176.576 191.009C176.186 190.667 175.728 190.41 175.233 190.256C174.737 190.102 174.215 190.055 173.699 190.116H144.543C143.883 190.15 143.248 190.382 142.721 190.781C142.193 191.18 141.798 191.728 141.586 192.354C137.657 189.224 129.879 183.183 127.219 181.133C139.864 181.133 205.328 180.523 205.328 180.523C216.58 179.537 217.848 168.394 211.087 165.436C208.304 164.452 205.339 164.094 202.401 164.388C202.401 164.388 132.493 165.608 121.287 165.953C120.415 164.168 119.427 162.443 118.33 160.788C115.403 157.658 110.896 155.858 104.902 155.592C104.603 155.116 104.252 154.675 103.853 154.278C105.6 152.862 107.011 151.077 107.985 149.051C108.233 147.825 108.332 146.575 108.282 145.326C108.451 145.247 108.596 145.126 108.705 144.975C108.814 144.824 108.883 144.648 108.905 144.463C108.926 144.279 108.901 144.091 108.83 143.919C108.76 143.747 108.647 143.596 108.501 143.479C108.846 142.603 109.456 141.194 108.924 140.349C108.795 140.156 108.62 139.998 108.416 139.889C108.211 139.78 107.982 139.723 107.75 139.723C106.921 139.473 104.37 134.308 102.226 131.21C104.511 129.003 104.026 126.593 101.459 125.732C98.4228 124.496 94.9798 125.936 92.8045 127.047C92.1159 108.83 91.4429 68.0462 91.4586 67.4828C91.3775 65.2066 91.6736 62.9327 92.335 60.7533C92.7286 59.516 93.424 58.396 94.3583 57.4945C95.2927 56.5929 96.4367 55.938 97.6873 55.5888C100.52 54.775 225.704 35.6663 226.925 35.5098C229.768 34.907 232.705 34.907 235.548 35.5098C236.769 35.8069 237.883 36.4366 238.767 37.329C239.651 38.2214 240.27 39.3415 240.556 40.5648C240.772 41.7468 240.872 42.9472 240.853 44.1486C240.853 44.1486 241.339 179.318 241.339 187.847C230.556 195.594 225.25 207.957 222.684 219.35C221.792 219.303 220.164 219.241 217.691 219.1ZM222.387 220.43C219.976 231.886 223.185 224.781 217.926 221.651V220.383C219.1 220.477 221.181 220.508 222.355 220.493L222.387 220.43ZM186.235 215.203C186.424 216.202 186.685 217.185 187.017 218.145C181.196 217.817 121.084 215.72 119.722 215.673C118.799 213.591 117.782 211.447 116.702 209.287C117.45 208.66 118.132 207.957 118.737 207.19C118.455 203.747 118.345 192.088 118.424 189.099C121.194 190.664 130.537 195.594 134.418 197.159C136.952 198.047 139.337 199.313 141.492 200.915C141.492 204.749 141.304 205.25 142.274 206.032C143.244 206.815 141.147 206.486 169.02 206.486C165.89 211.729 168.034 215.61 172.557 216.205C176.297 216.674 179.49 214.859 182.589 213.075C187.006 210.28 192.171 208.899 197.393 209.115C199.334 210.007 203.043 212.245 203.794 214.045C204.311 215.281 203.904 215.86 204.686 217.175C205.203 218.02 205.641 218.051 206.408 218.897C198.004 218.709 198.974 218.897 198.583 218.427C195.938 215.454 193.199 212.386 188.833 212.308C186.673 212.245 185.687 213.09 186.235 215.203ZM128.017 179.208C127.375 177.878 124.449 171.978 121.96 167.173C142.728 166.688 205.25 165.608 205.25 165.608C207.957 165.608 210.962 166.031 212.777 168.191C213.476 169.166 213.874 170.324 213.922 171.523C213.969 172.722 213.664 173.909 213.043 174.936C210.618 179.239 205.218 179.443 200.304 179.286L127.328 179.991C127.829 179.678 128.158 179.521 128.033 179.271L128.017 179.208ZM125.623 181.196C150.318 200.696 141.554 193.152 143.354 194.921C143.51 195.077 143.495 195.077 146.171 193.575C147.611 192.761 148.315 192.276 148.612 192.589C149.285 193.34 146.562 194.639 147.047 195.891C147.579 197.456 150.819 197.566 152.102 198.536C152.184 198.596 152.243 198.682 152.272 198.779C152.301 198.876 152.298 198.98 152.262 199.076C152.227 199.171 152.162 199.252 152.077 199.307C151.991 199.362 151.891 199.388 151.789 199.381C149.574 199.183 147.401 198.655 145.342 197.816C145.303 197.794 145.26 197.781 145.216 197.776C145.172 197.772 145.127 197.776 145.085 197.789C145.042 197.803 145.003 197.824 144.969 197.853C144.935 197.882 144.907 197.917 144.888 197.957C144.716 198.317 145.122 198.442 145.467 198.63C147.467 199.58 149.607 200.204 151.805 200.476C153.37 200.696 152.525 201.838 151.242 201.572C149.208 201.19 147.197 200.699 145.216 200.101C145.145 200.07 145.064 200.067 144.991 200.093C144.917 200.119 144.855 200.171 144.818 200.239C144.781 200.308 144.771 200.388 144.789 200.464C144.808 200.539 144.854 200.605 144.919 200.649C145.435 200.93 147.924 201.494 149.708 201.963C149.787 201.986 149.856 202.033 149.907 202.098C149.957 202.162 149.986 202.241 149.99 202.323C149.989 202.406 149.961 202.486 149.91 202.551C149.859 202.616 149.788 202.662 149.708 202.683C149.279 202.793 148.835 202.83 148.393 202.793C146.564 202.331 144.798 201.648 143.135 200.758C140.603 198.754 137.765 197.168 134.731 196.063C131.006 194.498 120.411 189.083 118.392 187.878C118.392 186.939 118.486 186 118.564 185.093C120.082 184.388 124.48 181.994 125.638 181.258L125.623 181.196ZM154.027 195.797C154.14 195.661 154.302 195.576 154.478 195.558C154.653 195.54 154.829 195.593 154.966 195.703C156.364 197.023 157.637 198.469 158.769 200.023C160.201 196.995 162.713 194.611 165.812 193.34C165.953 193.29 166.109 193.292 166.249 193.346C166.389 193.401 166.505 193.504 166.576 193.637C166.646 193.77 166.666 193.924 166.632 194.071C166.598 194.217 166.512 194.347 166.391 194.436C163.383 196.187 161.11 198.966 159.99 202.261C159.927 202.456 159.804 202.626 159.638 202.747C159.472 202.868 159.272 202.933 159.067 202.934C158.441 202.934 158.253 202.527 157.736 201.869C153.73 196.814 153.73 196.298 154.043 195.86L154.027 195.797ZM207.237 220.086C208.083 221.727 208.664 223.491 208.959 225.313C203.873 223.638 202.135 222.183 199.897 219.851L207.237 220.086ZM203.262 207.707C193.293 208.098 190.101 207.19 181.869 211.901C179.881 213.184 177.698 214.136 175.405 214.718C172.51 215.281 169.145 214.499 168.817 211.51C168.331 207.347 173.245 202.793 176.955 200.805C180.396 199.713 184.043 199.429 187.612 199.976C190.568 200.002 193.468 200.789 196.032 202.261C188.661 202.182 182.933 203.732 178.566 206.956C178.511 207.018 178.481 207.099 178.481 207.182C178.481 207.266 178.511 207.347 178.566 207.409C179.192 208.333 180.225 204.436 194.404 203.513C200.12 203.674 205.7 205.29 210.618 208.208C208.232 207.598 205.751 207.45 203.309 207.769L203.262 207.707ZM101.537 168.848C102.038 170.788 109.581 185.562 110.927 187.894C112.242 187.237 113.838 186.407 115.622 185.593C115.772 185.524 115.943 185.514 116.1 185.565C116.257 185.616 116.389 185.725 116.47 185.869C116.551 186.013 116.574 186.182 116.536 186.342C116.498 186.503 116.401 186.644 116.264 186.736C111.569 189.631 110.88 190.101 110.004 189.459C109.127 188.817 101.287 172.494 100.614 169.114C100.621 169.01 100.662 168.91 100.73 168.831C100.798 168.752 100.89 168.696 100.992 168.673C101.094 168.651 101.201 168.661 101.296 168.704C101.391 168.747 101.471 168.819 101.522 168.91L101.537 168.848ZM94.2286 157.893C94.3 157.086 94.5629 156.308 94.9955 155.624C98.2037 154.387 101.099 152.321 103.368 155.248C99.5809 154.935 98.7202 156.813 94.213 158.065L94.2286 157.893ZM93.1018 158.175C92.5071 158.315 91.8342 158.441 91.0986 158.55C90.8795 157.439 90.9265 157.376 91.709 156.985C94.6042 155.999 93.1957 155.89 93.0862 158.3L93.1018 158.175ZM124.887 228.13C123.322 224.405 121.757 220.305 120.192 216.721C128.815 217.112 182.51 219.35 187.487 219.382C189.208 223.826 191.9 227.786 193.559 232.215C185.922 231.62 130.083 228.49 124.887 228.13ZM211.651 296.27C207.378 292.326 207.175 282.639 206.298 277.381H210.884C210.884 282.342 211.838 293.61 213.795 297.569C213.009 297.266 212.283 296.826 211.651 296.27ZM215.313 298.132C214.127 295.952 213.383 293.559 213.122 291.09C212.574 288.101 211.87 279.399 211.791 277.381H217.535C217.535 279.118 218.552 297.35 219.257 299.04C217.917 298.86 216.596 298.556 215.313 298.132ZM220.462 299.134C220.032 298.147 219.813 297.081 219.82 296.004C219.648 294.439 218.615 279.838 218.49 277.381H227.348C227.144 284.36 226.988 292.326 224.218 298.758C222.991 299.071 221.725 299.198 220.462 299.134ZM231.933 289.337C230.744 294.032 228.646 297.037 225.673 298.305C228.02 291.669 228.24 284.047 228.224 277.365H233.795C233.52 281.402 232.897 285.407 231.933 289.337ZM237.88 269.415C237.99 270.682 237.99 271.966 238.099 273.249C238.099 273.562 238.099 273.562 238.021 273.625C237.943 273.687 202.652 274.078 202.511 273.938C202.434 272.447 202.434 270.953 202.511 269.462C202.621 269.43 234.421 269.352 237.88 269.415ZM218.975 264.923C215.188 251.417 213.842 240.697 198.99 229.664C198.954 229.636 198.913 229.616 198.869 229.604C198.825 229.592 198.779 229.589 198.734 229.595C198.643 229.606 198.561 229.654 198.505 229.726C198.449 229.799 198.424 229.891 198.435 229.982C198.447 230.073 198.495 230.155 198.567 230.211C207.117 236.935 213.082 246.405 215.454 257.02C211.259 249.336 206.47 245.439 201.369 243.295C197.268 241.589 197.002 240.447 195.875 235.72C193.622 226.33 188.645 221.823 187.456 214.515C187.456 213.967 187.456 213.826 187.659 213.732C194.968 212.449 198.145 222.183 204.342 224.687C206.361 225.704 210.133 227.035 211.948 229.758C212.762 230.978 215.203 236.346 220.274 259.837C219.676 261.485 219.247 263.189 218.99 264.923H218.975ZM224.828 256.19C227.181 254.558 229.901 253.531 232.747 253.201C234.207 253.26 235.64 253.617 236.957 254.25C243.921 256.081 247.755 262.779 251.042 268.695C252.325 270.948 252.497 271.825 251.777 272.654C251.308 273.015 250.727 273.2 250.135 273.177C249.543 273.154 248.978 272.925 248.538 272.529C247.492 271.726 246.555 270.789 245.752 269.743C243.185 266.739 242.372 266.363 239.602 265.471C233.029 263.358 226.283 258.616 220.587 262.873C220.8 261.527 221.288 260.239 222.02 259.089C222.753 257.94 223.714 256.953 224.844 256.19H224.828ZM221.009 257.536C220.221 251.092 220.11 244.582 220.681 238.115C222.621 219.335 226.831 198.426 243.764 187.706C243.107 211.087 230.055 235.579 221.025 257.536H221.009ZM241.245 209.898C241.151 214.014 241.339 216.08 240.384 217.723C240.157 218.131 239.848 218.488 239.476 218.771C239.105 219.053 238.678 219.256 238.224 219.366C239.32 216.236 240.353 213.075 241.26 209.898H241.245ZM241.01 235.517C242.168 233.811 244.484 232.387 250.134 233.42C251.057 233.608 255.017 235.157 256.629 235.658C253.749 236.816 252.059 236.112 241.01 235.517ZM259.587 233.185C259.227 233.773 258.778 234.301 258.256 234.75C255.893 235.204 251.621 230.384 241.041 232.481C239.817 232.64 238.633 233.028 237.551 233.623C235.967 234.502 234.163 234.905 232.356 234.781C240.681 223.2 257.787 225.157 259.493 231.651C259.651 232.147 259.683 232.674 259.587 233.185ZM260.619 230.697C258.1 223.951 243.107 221.87 233.639 231.526C235.016 228.099 236.44 224.452 237.77 220.712C240.666 220.712 242.325 217.582 242.387 214.796C242.497 213.419 242.606 208.129 242.481 205.406C244.14 199.283 244.992 192.97 245.016 186.626C245.008 186.508 244.968 186.394 244.903 186.295C244.837 186.196 244.747 186.116 244.641 186.063C244.281 185.891 244.03 186.063 242.356 187.174C242.481 169.489 242.215 45.6354 242.215 45.1659C242.396 42.8164 242.021 40.4572 241.12 38.2799C238.506 33.2249 231.902 33.491 227.16 34.117C220.759 34.9777 103.525 53.1787 102.961 53.2413C98.1724 53.8673 93.2114 54.5089 91.1456 59.9708C90.3487 62.4289 90.004 65.0112 90.1283 67.5923C90.1283 67.5923 91.2708 111.115 91.7872 127.594C82.2877 132.07 81.4895 144.058 90.0657 151.069C90.538 152.71 91.1236 154.315 91.8185 155.874C89.8779 156.735 89.7214 156.797 90.097 159.004C82.7015 162.507 76.7303 168.439 73.1794 175.812C73.1574 175.85 73.1458 175.893 73.1458 175.937C73.1458 175.981 73.1574 176.024 73.1794 176.062C73.5896 176.611 74.0339 177.134 74.5096 177.627C73.2058 180.354 72.9444 183.463 73.7746 186.369C74.6049 189.275 76.4695 191.777 79.0168 193.403C78.7038 195.422 77.2014 203.606 76.372 207.206C76.354 207.242 76.3447 207.283 76.3447 207.323C76.3447 207.364 76.354 207.404 76.372 207.441C77.5177 208.47 78.7597 209.388 80.081 210.179C78.7621 214.817 78.4263 219.678 79.0951 224.452L71.9587 224.202C72.1308 215.328 72.0682 64.6658 71.9587 52.6622C74.0871 52.3336 249.054 25.2278 261.856 23.1776C261.997 35.995 261.496 227.175 260.619 230.618V230.697ZM262.091 22.1291C255.048 23.2089 57.2633 53.6325 49.141 54.9941C48.9532 48.8749 49.5009 42.881 57.3416 42.0359C59.7047 41.5664 247.802 10.908 248.272 10.8298C251.699 10.2194 261.167 8.38838 261.762 11.7531C261.918 12.6608 262.091 19.1556 262.091 22.0508V22.1291Z" fill="#0867FF"/>
</svg>
