<svg width="22" height="22" viewBox="0 0 22 22" fill="none" xmlns="http://www.w3.org/2000/svg">
<path d="M7.73989 9.74317C7.86261 9.67233 7.9645 9.57042 8.03534 9.4477C8.10617 9.32497 8.14345 9.18576 8.14342 9.04407V1.7806C8.1427 1.65193 8.11122 1.5253 8.05162 1.41127C7.99201 1.29723 7.90601 1.1991 7.80077 1.12506C7.69554 1.05102 7.57412 1.00322 7.44666 0.985637C7.31919 0.968055 7.18937 0.981205 7.06802 1.02399C4.71242 1.85769 2.73145 3.50431 1.48122 5.66784C0.230999 7.83137 -0.206481 10.3699 0.247427 12.8271C0.270954 12.9542 0.324651 13.0737 0.404001 13.1757C0.48335 13.2777 0.586032 13.3592 0.703411 13.4132C0.80919 13.4627 0.92459 13.4882 1.04136 13.4879C1.18301 13.488 1.32218 13.4507 1.44489 13.38L7.73989 9.74317ZM6.52932 3.00328V8.57799L1.69911 11.3653C1.68701 11.213 1.68701 11.0597 1.68701 10.9104C1.68844 9.27444 2.14127 7.67063 2.99563 6.27552C3.85 4.88041 5.07277 3.7481 6.52932 3.00328ZM21.0562 10.9104C21.057 13.2136 20.2999 15.4531 18.9016 17.2834C17.5033 19.1136 15.5416 20.4329 13.3192 21.0376C11.0967 21.6423 8.73705 21.4989 6.6042 20.6295C4.47134 19.7601 2.68386 18.2129 1.51752 16.2268C1.46315 16.1351 1.4275 16.0335 1.41263 15.9279C1.39776 15.8223 1.40397 15.7148 1.43089 15.6116C1.45781 15.5084 1.50492 15.4116 1.56948 15.3267C1.63405 15.2418 1.71479 15.1706 1.80705 15.1171L9.75752 10.4897V1.22575C9.75752 1.01171 9.84255 0.806433 9.9939 0.655081C10.1453 0.50373 10.3505 0.418701 10.5646 0.418701C12.3954 0.419635 14.1942 0.899436 15.7823 1.81047C17.3704 2.7215 18.6927 4.03208 19.6177 5.61208C19.6288 5.62822 19.6389 5.64436 19.649 5.66151C19.659 5.67866 19.6691 5.69884 19.6782 5.717C20.5834 7.29798 21.0586 9.08858 21.0562 10.9104Z" fill="#0867FF"/>
</svg>
