<svg width="27" height="26" viewBox="0 0 27 26" fill="none" xmlns="http://www.w3.org/2000/svg">
<path d="M10.7401 11.7432C10.8629 11.6723 10.9647 11.5704 11.0356 11.4477C11.1064 11.325 11.1437 11.1858 11.1437 11.0441V3.7806C11.1429 3.65193 11.1115 3.5253 11.0519 3.41127C10.9923 3.29723 10.9063 3.1991 10.801 3.12506C10.6958 3.05102 10.5744 3.00322 10.4469 2.98564C10.3194 2.96805 10.1896 2.9812 10.0683 3.02399C7.71266 3.85769 5.73169 5.50431 4.48147 7.66784C3.23124 9.83137 2.79376 12.3699 3.24767 14.8271C3.2712 14.9542 3.3249 15.0737 3.40424 15.1757C3.48359 15.2777 3.58628 15.3592 3.70365 15.4132C3.80943 15.4627 3.92483 15.4882 4.04161 15.4879C4.18326 15.488 4.32243 15.4507 4.44513 15.38L10.7401 11.7432ZM9.52956 5.00328V10.578L4.69935 13.3653C4.68725 13.213 4.68725 13.0597 4.68725 12.9104C4.68868 11.2744 5.14151 9.67063 5.99588 8.27552C6.85024 6.88041 8.07302 5.7481 9.52956 5.00328ZM24.0565 12.9104C24.0573 15.2136 23.3001 17.4531 21.9019 19.2834C20.5036 21.1136 18.5419 22.4329 16.3194 23.0376C14.097 23.6423 11.7373 23.4989 9.60444 22.6295C7.47159 21.7601 5.6841 20.2129 4.51777 18.2268C4.4634 18.1351 4.42775 18.0335 4.41288 17.9279C4.39801 17.8223 4.40421 17.7148 4.43114 17.6116C4.45806 17.5084 4.50516 17.4116 4.56973 17.3267C4.63429 17.2418 4.71504 17.1706 4.8073 17.1171L12.7578 12.4897V3.22575C12.7578 3.01171 12.8428 2.80643 12.9941 2.65508C13.1455 2.50373 13.3508 2.4187 13.5648 2.4187C15.3957 2.41964 17.1945 2.89944 18.7826 3.81047C20.3707 4.7215 21.6929 6.03208 22.6179 7.61208C22.629 7.62822 22.6391 7.64436 22.6492 7.66151C22.6593 7.67866 22.6694 7.69884 22.6784 7.717C23.5837 9.29798 24.0588 11.0886 24.0565 12.9104Z" fill="#2A2A2A"/>
</svg>
