<svg width="19" height="19" viewBox="0 0 19 19" fill="none" xmlns="http://www.w3.org/2000/svg">
<path d="M9.49952 17.8125C7.85546 17.8125 6.24832 17.325 4.88134 16.4116C3.51435 15.4982 2.44892 14.2 1.81977 12.6811C1.19061 11.1621 1.026 9.49078 1.34674 7.87832C1.66748 6.26585 2.45917 4.7847 3.62169 3.62218C4.78421 2.45965 6.26536 1.66797 7.87783 1.34723C9.49029 1.02649 11.1617 1.1911 12.6806 1.82026C14.1995 2.44941 15.4977 3.51484 16.4111 4.88183C17.3245 6.24881 17.812 7.85595 17.812 9.5C17.812 11.7046 16.9362 13.8189 15.3773 15.3778C13.8184 16.9367 11.7041 17.8125 9.49952 17.8125ZM9.49952 2.375C8.09032 2.375 6.71278 2.79288 5.54108 3.57578C4.36938 4.35869 3.45615 5.47146 2.91687 6.77338C2.3776 8.07531 2.2365 9.50791 2.51142 10.89C2.78634 12.2721 3.46493 13.5417 4.46138 14.5381C5.45783 15.5346 6.72738 16.2132 8.1095 16.4881C9.49161 16.763 10.9242 16.6219 12.2261 16.0826C13.5281 15.5434 14.6408 14.6301 15.4237 13.4584C16.2066 12.2867 16.6245 10.9092 16.6245 9.5C16.6245 7.61034 15.8738 5.79806 14.5377 4.46187C13.2015 3.12567 11.3892 2.375 9.49952 2.375Z" fill="#0867FF"/>
<path d="M12.2248 13.0625L8.90576 9.74344V4.15625H10.0933V9.25063L13.062 12.2253L12.2248 13.0625Z" fill="#0867FF"/>
</svg>
