<svg width="43" height="43" viewBox="0 0 43 43" fill="none" xmlns="http://www.w3.org/2000/svg">
<g clip-path="url(#clip0_448_567)">
<path d="M23.3991 5.88216C22.8952 5.37888 22.2121 5.09619 21.4999 5.09619C20.7877 5.09619 20.1047 5.37888 19.6008 5.88216L9.46172 16.0158C8.95755 16.52 8.67432 17.2038 8.67432 17.9168C8.67432 18.6298 8.95755 19.3136 9.46172 19.8177C9.96588 20.3219 10.6497 20.6051 11.3627 20.6051C12.0757 20.6051 12.7595 20.3219 13.2636 19.8177L18.8124 14.2707V34.9376C18.8124 35.6504 19.0956 36.334 19.5996 36.838C20.1036 37.342 20.7872 37.6251 21.4999 37.6251C22.2127 37.6251 22.8963 37.342 23.4003 36.838C23.9043 36.334 24.1874 35.6504 24.1874 34.9376V14.2707L29.7344 19.8177C29.9841 20.0674 30.2804 20.2654 30.6066 20.4005C30.9328 20.5356 31.2823 20.6051 31.6354 20.6051C31.9884 20.6051 32.338 20.5356 32.6642 20.4005C32.9903 20.2654 33.2867 20.0674 33.5363 19.8177C33.786 19.5681 33.984 19.2717 34.1191 18.9456C34.2542 18.6194 34.3237 18.2698 34.3237 17.9168C34.3237 17.5637 34.2542 17.2142 34.1191 16.888C33.984 16.5618 33.786 16.2655 33.5363 16.0158L23.3991 5.88216Z" fill="#0867FF"/>
</g>
<defs>
<clipPath id="clip0_448_567">
<rect width="43" height="43" fill="white"/>
</clipPath>
</defs>
</svg>
