<svg width="20" height="20" viewBox="0 0 20 20" fill="none" xmlns="http://www.w3.org/2000/svg">
<path d="M5 11.5C5.41667 11.5 5.771 11.3543 6.063 11.063C6.355 10.7717 6.50067 10.4173 6.5 10C6.49933 9.58267 6.35367 9.22867 6.063 8.938C5.77233 8.64733 5.418 8.50133 5 8.5C4.582 8.49867 4.228 8.64467 3.938 8.938C3.648 9.23133 3.502 9.58533 3.5 10C3.498 10.4147 3.644 10.769 3.938 11.063C4.232 11.357 4.586 11.5027 5 11.5ZM10 11.5C10.4167 11.5 10.771 11.3543 11.063 11.063C11.355 10.7717 11.5007 10.4173 11.5 10C11.4993 9.58267 11.3537 9.22867 11.063 8.938C10.7723 8.64733 10.418 8.50133 10 8.5C9.582 8.49867 9.228 8.64467 8.938 8.938C8.648 9.23133 8.502 9.58533 8.5 10C8.498 10.4147 8.644 10.769 8.938 11.063C9.232 11.357 9.586 11.5027 10 11.5ZM15 11.5C15.4167 11.5 15.771 11.3543 16.063 11.063C16.355 10.7717 16.5007 10.4173 16.5 10C16.4993 9.58267 16.3537 9.22867 16.063 8.938C15.7723 8.64733 15.418 8.50133 15 8.5C14.582 8.49867 14.228 8.64467 13.938 8.938C13.648 9.23133 13.502 9.58533 13.5 10C13.498 10.4147 13.644 10.769 13.938 11.063C14.232 11.357 14.586 11.5027 15 11.5ZM10 20C8.61667 20 7.31667 19.7373 6.1 19.212C4.88333 18.6867 3.825 17.9743 2.925 17.075C2.025 16.1757 1.31267 15.1173 0.788001 13.9C0.263335 12.6827 0.000667932 11.3827 1.26582e-06 10C-0.000665401 8.61733 0.262001 7.31733 0.788001 6.1C1.314 4.88267 2.02633 3.82433 2.925 2.925C3.82367 2.02567 4.882 1.31333 6.1 0.788C7.318 0.262667 8.618 0 10 0C11.382 0 12.682 0.262667 13.9 0.788C15.118 1.31333 16.1763 2.02567 17.075 2.925C17.9737 3.82433 18.6863 4.88267 19.213 6.1C19.7397 7.31733 20.002 8.61733 20 10C19.998 11.3827 19.7353 12.6827 19.212 13.9C18.6887 15.1173 17.9763 16.1757 17.075 17.075C16.1737 17.9743 15.1153 18.687 13.9 19.213C12.6847 19.739 11.3847 20.0013 10 20ZM10 18C12.2333 18 14.125 17.225 15.675 15.675C17.225 14.125 18 12.2333 18 10C18 7.76667 17.225 5.875 15.675 4.325C14.125 2.775 12.2333 2 10 2C7.76667 2 5.875 2.775 4.325 4.325C2.775 5.875 2 7.76667 2 10C2 12.2333 2.775 14.125 4.325 15.675C5.875 17.225 7.76667 18 10 18Z" fill="#0867FF"/>
</svg>
