<svg width="24" height="24" viewBox="0 0 24 24" fill="none" xmlns="http://www.w3.org/2000/svg">
<path d="M20.0054 5.99512H19.0054V7.99512H20.0054V15.9951H19.0054V17.9951H20.0054C21.1084 17.9951 22.0054 17.0981 22.0054 15.9951V7.99512C22.0054 6.89312 21.1074 5.99512 20.0054 5.99512ZM6.00537 9.99512H15.0004V13.9951H6.00537V9.99512Z" fill="#0867FF"/>
<path d="M17.0054 17.995V4H20.0004V2H12.0004V4H15.0054V5.995H4.00537C2.90237 5.995 2.00537 6.892 2.00537 7.995V15.995C2.00537 17.098 2.90237 17.995 4.00537 17.995H15.0054V20H12.0004V22H20.0004V20H17.0054V17.995ZM4.00537 15.995V7.995H15.0054V15.995H4.00537Z" fill="#0867FF"/>
</svg>
