<svg width="38" height="38" viewBox="0 0 38 38" fill="none" xmlns="http://www.w3.org/2000/svg">
<path d="M18.9998 0.666748C29.1253 0.666748 37.3332 8.87458 37.3332 19.0001C37.3332 29.1256 29.1253 37.3334 18.9998 37.3334C8.87434 37.3334 0.666504 29.1256 0.666504 19.0001C0.666504 8.87458 8.87434 0.666748 18.9998 0.666748ZM18.9998 8.00008C18.5136 8.00008 18.0473 8.19324 17.7035 8.53705C17.3597 8.88087 17.1665 9.34718 17.1665 9.83342V19.0001C17.1666 19.4863 17.3598 19.9525 17.7037 20.2962L23.2037 25.7962C23.5494 26.1302 24.0125 26.315 24.4932 26.3108C24.9739 26.3066 25.4338 26.1138 25.7737 25.7739C26.1136 25.434 26.3064 24.9742 26.3106 24.4935C26.3148 24.0128 26.13 23.5497 25.796 23.2039L20.8332 18.2411V9.83342C20.8332 9.34718 20.64 8.88087 20.2962 8.53705C19.9524 8.19324 19.4861 8.00008 18.9998 8.00008Z" fill="#0867FF"/>
</svg>
