<svg width="41" height="41" viewBox="0 0 41 41" fill="none" xmlns="http://www.w3.org/2000/svg">
<path d="M34.5854 25.198C36.1827 26.2469 36.1092 28.6778 34.365 29.5986L22.0975 36.0835C21.6053 36.3437 21.0569 36.4798 20.5002 36.4798C19.9434 36.4798 19.3951 36.3437 18.9029 36.0835L6.63534 29.5986C4.89284 28.6761 4.81768 26.2469 6.41497 25.198L6.52259 25.2663L18.9029 31.8126C19.3951 32.0729 19.9434 32.209 20.5002 32.209C21.0569 32.209 21.6053 32.0729 22.0975 31.8126L34.365 25.3278C34.441 25.288 34.5135 25.2447 34.5854 25.198ZM34.5854 18.3646C34.9381 18.5983 35.2275 18.9157 35.4277 19.2885C35.6279 19.6612 35.7327 20.0778 35.7327 20.5009C35.7327 20.924 35.6279 21.3406 35.4277 21.7133C35.2275 22.0861 34.9381 22.4035 34.5854 22.6372L34.365 22.7653L22.0975 29.2501C21.6513 29.4861 21.1584 29.6203 20.6542 29.643C20.1499 29.6657 19.647 29.5765 19.1813 29.3817L18.9046 29.2501L6.63534 22.7653C4.89284 21.8428 4.81768 19.4135 6.41497 18.3646L6.52259 18.433L18.9029 24.9793C19.3493 25.2155 19.8425 25.3498 20.347 25.3726C20.8516 25.3953 21.3549 25.3059 21.8207 25.1108L22.0975 24.9793L34.365 18.4945C34.441 18.4547 34.5135 18.4114 34.5854 18.3646ZM22.0975 4.91662L34.365 11.4015C36.1861 12.3632 36.1861 14.9719 34.365 15.932L22.0975 22.4185C21.6053 22.6788 21.0569 22.8149 20.5002 22.8149C19.9434 22.8149 19.3951 22.6788 18.9029 22.4185L6.63534 15.932C4.81426 14.9702 4.81426 12.3632 6.63534 11.4015L18.9029 4.91662C19.3951 4.65633 19.9434 4.52026 20.5002 4.52026C21.0569 4.52026 21.6053 4.65633 22.0975 4.91662Z" fill="#A4D900"/>
</svg>
